<?xml version="1.0" encoding="UTF-8" standalone="no"?>
<!DOCTYPE svg PUBLIC "-//W3C//DTD SVG 1.1//EN"
 "http://www.w3.org/Graphics/SVG/1.1/DTD/svg11.dtd">
<!-- Generated by graphviz version 12.2.0 (20241103.1931)
 -->
<!-- Title: inheritancede10b8806d Pages: 1 -->
<svg width="160pt" height="131pt"
 viewBox="0.00 0.00 160.15 131.20" xmlns="http://www.w3.org/2000/svg" xmlns:xlink="http://www.w3.org/1999/xlink">
<g id="graph0" class="graph" transform="scale(1 1) rotate(0) translate(4 127.2)">
<title>inheritancede10b8806d</title>
<!-- CustomStyleServices -->
<g id="node1" class="node">
<title>CustomStyleServices</title>
<g id="a_node1"><a xlink:title="TCustomStyleServices is a class that provides access to style functionality.">
<polygon fill="white" stroke="black" stroke-width="0" points="152.15,-123.2 49.7,-123.2 49.7,-104 152.15,-104 152.15,-123.2"/>
<text text-anchor="middle" x="100.92" y="-110.1" font-family="Vera Sans, DejaVu Sans, Liberation Sans, Arial, Helvetica, sans" font-size="10.00">CustomStyleServices</text>
</a>
</g>
</g>
<!-- Object -->
<g id="node2" class="node">
<title>Object</title>
<g id="a_node2"><a xlink:title="TObject is the ultimate ancestor of all objects and components.">
<polygon fill="white" stroke="black" stroke-width="0" points="35.7,-71.2 0,-71.2 0,-52 35.7,-52 35.7,-71.2"/>
<text text-anchor="middle" x="17.85" y="-58.1" font-family="Vera Sans, DejaVu Sans, Liberation Sans, Arial, Helvetica, sans" font-size="10.00">Object</text>
</a>
</g>
</g>
<!-- Object&#45;&gt;CustomStyleServices -->
<g id="edge1" class="edge">
<title>Object&#45;&gt;CustomStyleServices</title>
<path fill="none" stroke="black" d="M35.33,-66.4C46.35,-66.4 58.51,-66.4 58.51,-66.4 58.51,-66.4 58.51,-97.53 58.51,-97.53"/>
<polygon fill="black" stroke="black" points="56.76,-97.53 58.51,-102.53 60.26,-97.53 56.76,-97.53"/>
</g>
<!-- Monitor -->
<g id="node3" class="node">
<title>Monitor</title>
<g id="a_node3"><a xlink:title="TMonitor represents a monitor on which an application runs.">
<polygon fill="white" stroke="black" stroke-width="0" points="120.65,-97.2 81.2,-97.2 81.2,-78 120.65,-78 120.65,-97.2"/>
<text text-anchor="middle" x="100.92" y="-84.1" font-family="Vera Sans, DejaVu Sans, Liberation Sans, Arial, Helvetica, sans" font-size="10.00">Monitor</text>
</a>
</g>
</g>
<!-- Object&#45;&gt;Monitor -->
<g id="edge2" class="edge">
<title>Object&#45;&gt;Monitor</title>
<path fill="none" stroke="black" d="M17.85,-70.99C17.85,-78.43 17.85,-87.6 17.85,-87.6 17.85,-87.6 74.72,-87.6 74.72,-87.6"/>
<polygon fill="black" stroke="black" points="74.72,-89.35 79.72,-87.6 74.72,-85.85 74.72,-89.35"/>
</g>
<!-- Persistent -->
<g id="node4" class="node">
<title>Persistent</title>
<g id="a_node4"><a xlink:title="TPersistent is the ancestor for all objects that have assignment and streaming capabilities.">
<polygon fill="white" stroke="black" stroke-width="0" points="126.65,-71.2 75.2,-71.2 75.2,-52 126.65,-52 126.65,-71.2"/>
<text text-anchor="middle" x="100.92" y="-58.1" font-family="Vera Sans, DejaVu Sans, Liberation Sans, Arial, Helvetica, sans" font-size="10.00">Persistent</text>
</a>
</g>
</g>
<!-- Object&#45;&gt;Persistent -->
<g id="edge3" class="edge">
<title>Object&#45;&gt;Persistent</title>
<path fill="none" stroke="black" d="M35.47,-61.6C35.47,-61.6 68.94,-61.6 68.94,-61.6"/>
<polygon fill="black" stroke="black" points="68.94,-63.35 73.94,-61.6 68.94,-59.85 68.94,-63.35"/>
</g>
<!-- Stream -->
<g id="node5" class="node">
<title>Stream</title>
<g id="a_node5"><a xlink:title="TStream is the base class type for stream objects that can read from or write to various kinds of storage media, such as disk files, dynamic memory, and so on.">
<polygon fill="white" stroke="black" stroke-width="0" points="120.27,-45.2 81.57,-45.2 81.57,-26 120.27,-26 120.27,-45.2"/>
<text text-anchor="middle" x="100.92" y="-32.1" font-family="Vera Sans, DejaVu Sans, Liberation Sans, Arial, Helvetica, sans" font-size="10.00">Stream</text>
</a>
</g>
</g>
<!-- Object&#45;&gt;Stream -->
<g id="edge4" class="edge">
<title>Object&#45;&gt;Stream</title>
<path fill="none" stroke="black" d="M17.85,-52.21C17.85,-44.77 17.85,-35.6 17.85,-35.6 17.85,-35.6 75.14,-35.6 75.14,-35.6"/>
<polygon fill="black" stroke="black" points="75.14,-37.35 80.14,-35.6 75.14,-33.85 75.14,-37.35"/>
</g>
<!-- StyleManager -->
<g id="node6" class="node">
<title>StyleManager</title>
<g id="a_node6"><a xlink:title="Handles styles&#45;related operations.">
<polygon fill="white" stroke="black" stroke-width="0" points="134.52,-19.2 67.32,-19.2 67.32,0 134.52,0 134.52,-19.2"/>
<text text-anchor="middle" x="100.92" y="-6.1" font-family="Vera Sans, DejaVu Sans, Liberation Sans, Arial, Helvetica, sans" font-size="10.00">StyleManager</text>
</a>
</g>
</g>
<!-- Object&#45;&gt;StyleManager -->
<g id="edge5" class="edge">
<title>Object&#45;&gt;StyleManager</title>
<path fill="none" stroke="black" d="M35.64,-56.8C51.17,-56.8 71.26,-56.8 71.26,-56.8 71.26,-56.8 71.26,-25.67 71.26,-25.67"/>
<polygon fill="black" stroke="black" points="73.01,-25.67 71.26,-20.67 69.51,-25.67 73.01,-25.67"/>
</g>
</g>
</svg>
