<?xml version="1.0" encoding="UTF-8" standalone="no"?>
<!DOCTYPE svg PUBLIC "-//W3C//DTD SVG 1.1//EN"
 "http://www.w3.org/Graphics/SVG/1.1/DTD/svg11.dtd">
<!-- Generated by graphviz version 12.2.0 (20241103.1931)
 -->
<!-- Title: inheritanceb81cc7956e Pages: 1 -->
<svg width="830pt" height="287pt"
 viewBox="0.00 0.00 830.35 287.20" xmlns="http://www.w3.org/2000/svg" xmlns:xlink="http://www.w3.org/1999/xlink">
<g id="graph0" class="graph" transform="scale(1 1) rotate(0) translate(4 283.2)">
<title>inheritanceb81cc7956e</title>
<!-- Action -->
<g id="node1" class="node">
<title>Action</title>
<g id="a_node1"><a xlink:title="TAction is the base class for VCL action objects. TAction implements actions to be used with menu items and controls. The published properties and events of TAction actions can be managed in the Object Inspector at design time.">
<polygon fill="white" stroke="black" stroke-width="0" points="659.4,-253.2 624.45,-253.2 624.45,-234 659.4,-234 659.4,-253.2"/>
<text text-anchor="middle" x="641.93" y="-240.1" font-family="Vera Sans, DejaVu Sans, Liberation Sans, Arial, Helvetica, sans" font-size="10.00">Action</text>
</a>
</g>
</g>
<!-- CustomAction -->
<g id="node2" class="node">
<title>CustomAction</title>
<g id="a_node2"><a xlink:title="TCustomAction is the base class for VCL actions intended to be used with menu items and controls.">
<polygon fill="white" stroke="black" stroke-width="0" points="541.45,-253.2 472,-253.2 472,-234 541.45,-234 541.45,-253.2"/>
<text text-anchor="middle" x="506.73" y="-240.1" font-family="Vera Sans, DejaVu Sans, Liberation Sans, Arial, Helvetica, sans" font-size="10.00">CustomAction</text>
</a>
</g>
</g>
<!-- CustomAction&#45;&gt;Action -->
<g id="edge1" class="edge">
<title>CustomAction&#45;&gt;Action</title>
<path fill="none" stroke="black" d="M541.19,-243.6C541.19,-243.6 617.95,-243.6 617.95,-243.6"/>
<polygon fill="black" stroke="black" points="617.95,-245.35 622.95,-243.6 617.95,-241.85 617.95,-245.35"/>
</g>
<!-- ActionList -->
<g id="node3" class="node">
<title>ActionList</title>
<g id="a_node3"><a xlink:title="TActionList maintains a list of actions that can be used by components and controls such as menu items and buttons.">
<polygon fill="white" stroke="black" stroke-width="0" points="532.08,-123.2 481.38,-123.2 481.38,-104 532.08,-104 532.08,-123.2"/>
<text text-anchor="middle" x="506.73" y="-110.1" font-family="Vera Sans, DejaVu Sans, Liberation Sans, Arial, Helvetica, sans" font-size="10.00">ActionList</text>
</a>
</g>
</g>
<!-- CustomActionList -->
<g id="node4" class="node">
<title>CustomActionList</title>
<g id="a_node4"><a xlink:title="The usual list of actions (without published properties) in VCL">
<polygon fill="white" stroke="black" stroke-width="0" points="425.75,-123.2 340.55,-123.2 340.55,-104 425.75,-104 425.75,-123.2"/>
<text text-anchor="middle" x="383.15" y="-110.1" font-family="Vera Sans, DejaVu Sans, Liberation Sans, Arial, Helvetica, sans" font-size="10.00">CustomActionList</text>
</a>
</g>
</g>
<!-- CustomActionList&#45;&gt;ActionList -->
<g id="edge2" class="edge">
<title>CustomActionList&#45;&gt;ActionList</title>
<path fill="none" stroke="black" d="M425.68,-113.6C425.68,-113.6 474.92,-113.6 474.92,-113.6"/>
<polygon fill="black" stroke="black" points="474.92,-115.35 479.92,-113.6 474.92,-111.85 474.92,-115.35"/>
</g>
<!-- ActivityIndicator -->
<g id="node5" class="node">
<title>ActivityIndicator</title>
<g id="a_node5"><a xlink:title="An animated rotating display indicating that the application is performing some activity.">
<polygon fill="white" stroke="black" stroke-width="0" points="811.48,-201.2 733.77,-201.2 733.77,-182 811.48,-182 811.48,-201.2"/>
<text text-anchor="middle" x="772.62" y="-188.1" font-family="Vera Sans, DejaVu Sans, Liberation Sans, Arial, Helvetica, sans" font-size="10.00">ActivityIndicator</text>
</a>
</g>
</g>
<!-- CustomActivityIndicator -->
<g id="node6" class="node">
<title>CustomActivityIndicator</title>
<g id="a_node6"><a xlink:title="The base class for TActivityIndicator.">
<polygon fill="white" stroke="black" stroke-width="0" points="698.03,-201.2 585.83,-201.2 585.83,-182 698.03,-182 698.03,-201.2"/>
<text text-anchor="middle" x="641.93" y="-188.1" font-family="Vera Sans, DejaVu Sans, Liberation Sans, Arial, Helvetica, sans" font-size="10.00">CustomActivityIndicator</text>
</a>
</g>
</g>
<!-- CustomActivityIndicator&#45;&gt;ActivityIndicator -->
<g id="edge3" class="edge">
<title>CustomActivityIndicator&#45;&gt;ActivityIndicator</title>
<path fill="none" stroke="black" d="M697.73,-191.6C697.73,-191.6 727.46,-191.6 727.46,-191.6"/>
<polygon fill="black" stroke="black" points="727.46,-193.35 732.46,-191.6 727.46,-189.85 727.46,-193.35"/>
</g>
<!-- BaseBindScopeComponent -->
<g id="node7" class="node">
<title>BaseBindScopeComponent</title>
<g id="a_node7"><a xlink:title="Base class for the binding scope component. TBaseBindScopeComponent is the ancestor for the TCustomBindScope component. TBaseBindScopeComponent provides functionality for adding scope mappings, getting scope members and values, returning the scope itself or the scope of a member. It also provides properties for accessing the binding expressions in this scope and the scope mappings.">
<polygon fill="white" stroke="black" stroke-width="0" points="313.8,-279.2 186.6,-279.2 186.6,-260 313.8,-260 313.8,-279.2"/>
<text text-anchor="middle" x="250.2" y="-266.1" font-family="Vera Sans, DejaVu Sans, Liberation Sans, Arial, Helvetica, sans" font-size="10.00">BaseBindScopeComponent</text>
</a>
</g>
</g>
<!-- BaseLinkingBindSource -->
<g id="node9" class="node">
<title>BaseLinkingBindSource</title>
<g id="a_node9"><a xlink:title="Base class for scope with supports linking">
<polygon fill="white" stroke="black" stroke-width="0" points="438.5,-279.2 327.8,-279.2 327.8,-260 438.5,-260 438.5,-279.2"/>
<text text-anchor="middle" x="383.15" y="-266.1" font-family="Vera Sans, DejaVu Sans, Liberation Sans, Arial, Helvetica, sans" font-size="10.00">BaseLinkingBindSource</text>
</a>
</g>
</g>
<!-- BaseBindScopeComponent&#45;&gt;BaseLinkingBindSource -->
<g id="edge5" class="edge">
<title>BaseBindScopeComponent&#45;&gt;BaseLinkingBindSource</title>
<path fill="none" stroke="black" d="M313.56,-269.6C313.56,-269.6 321.46,-269.6 321.46,-269.6"/>
<polygon fill="black" stroke="black" points="321.46,-271.35 326.46,-269.6 321.46,-267.85 321.46,-271.35"/>
</g>
<!-- Component -->
<g id="node8" class="node">
<title>Component</title>
<g id="a_node8"><a xlink:title="TComponent is the common ancestor of all component classes.">
<polygon fill="white" stroke="black" stroke-width="0" points="172.6,-149.2 115.15,-149.2 115.15,-130 172.6,-130 172.6,-149.2"/>
<text text-anchor="middle" x="143.88" y="-136.1" font-family="Vera Sans, DejaVu Sans, Liberation Sans, Arial, Helvetica, sans" font-size="10.00">Component</text>
</a>
</g>
</g>
<!-- Component&#45;&gt;BaseBindScopeComponent -->
<g id="edge4" class="edge">
<title>Component&#45;&gt;BaseBindScopeComponent</title>
<path fill="none" stroke="black" d="M172.44,-142.8C183.24,-142.8 192.98,-142.8 192.98,-142.8 192.98,-142.8 192.98,-253.56 192.98,-253.56"/>
<polygon fill="black" stroke="black" points="191.23,-253.56 192.98,-258.56 194.73,-253.56 191.23,-253.56"/>
</g>
<!-- BasicAction -->
<g id="node11" class="node">
<title>BasicAction</title>
<g id="a_node11"><a xlink:title="TBasicAction is the ancestor class for all action objects.">
<polygon fill="white" stroke="black" stroke-width="0" points="280.05,-253.2 220.35,-253.2 220.35,-234 280.05,-234 280.05,-253.2"/>
<text text-anchor="middle" x="250.2" y="-240.1" font-family="Vera Sans, DejaVu Sans, Liberation Sans, Arial, Helvetica, sans" font-size="10.00">BasicAction</text>
</a>
</g>
</g>
<!-- Component&#45;&gt;BasicAction -->
<g id="edge7" class="edge">
<title>Component&#45;&gt;BasicAction</title>
<path fill="none" stroke="black" d="M126.64,-149.2C126.64,-174.94 126.64,-243.6 126.64,-243.6 126.64,-243.6 214.09,-243.6 214.09,-243.6"/>
<polygon fill="black" stroke="black" points="214.09,-245.35 219.09,-243.6 214.09,-241.85 214.09,-245.35"/>
</g>
<!-- BasicBindComponent -->
<g id="node12" class="node">
<title>BasicBindComponent</title>
<g id="a_node12"><a xlink:title="Wrapper for Pascal class TBasicBindComponent">
<polygon fill="white" stroke="black" stroke-width="0" points="301.05,-227.2 199.35,-227.2 199.35,-208 301.05,-208 301.05,-227.2"/>
<text text-anchor="middle" x="250.2" y="-214.1" font-family="Vera Sans, DejaVu Sans, Liberation Sans, Arial, Helvetica, sans" font-size="10.00">BasicBindComponent</text>
</a>
</g>
</g>
<!-- Component&#45;&gt;BasicBindComponent -->
<g id="edge8" class="edge">
<title>Component&#45;&gt;BasicBindComponent</title>
<path fill="none" stroke="black" d="M138.13,-149.16C138.13,-169.99 138.13,-217.6 138.13,-217.6 138.13,-217.6 192.9,-217.6 192.9,-217.6"/>
<polygon fill="black" stroke="black" points="192.9,-219.35 197.9,-217.6 192.9,-215.85 192.9,-219.35"/>
</g>
<!-- CustomBindingsList -->
<g id="node14" class="node">
<title>CustomBindingsList</title>
<g id="a_node14"><a xlink:title="Represents the base class for the binding list.">
<polygon fill="white" stroke="black" stroke-width="0" points="297.68,-201.2 202.73,-201.2 202.73,-182 297.68,-182 297.68,-201.2"/>
<text text-anchor="middle" x="250.2" y="-188.1" font-family="Vera Sans, DejaVu Sans, Liberation Sans, Arial, Helvetica, sans" font-size="10.00">CustomBindingsList</text>
</a>
</g>
</g>
<!-- Component&#45;&gt;CustomBindingsList -->
<g id="edge18" class="edge">
<title>Component&#45;&gt;CustomBindingsList</title>
<path fill="none" stroke="black" d="M149.62,-149.14C149.62,-164.15 149.62,-191.6 149.62,-191.6 149.62,-191.6 196.34,-191.6 196.34,-191.6"/>
<polygon fill="black" stroke="black" points="196.34,-193.35 201.34,-191.6 196.34,-189.85 196.34,-193.35"/>
</g>
<!-- Control -->
<g id="node16" class="node">
<title>Control</title>
<g id="a_node16"><a xlink:title="TControl is the base class for all components that are visible at run time.">
<polygon fill="white" stroke="black" stroke-width="0" points="269.55,-175.2 230.85,-175.2 230.85,-156 269.55,-156 269.55,-175.2"/>
<text text-anchor="middle" x="250.2" y="-162.1" font-family="Vera Sans, DejaVu Sans, Liberation Sans, Arial, Helvetica, sans" font-size="10.00">Control</text>
</a>
</g>
</g>
<!-- Component&#45;&gt;Control -->
<g id="edge14" class="edge">
<title>Component&#45;&gt;Control</title>
<path fill="none" stroke="black" d="M161.11,-148.99C161.11,-156.43 161.11,-165.6 161.11,-165.6 161.11,-165.6 224.36,-165.6 224.36,-165.6"/>
<polygon fill="black" stroke="black" points="224.36,-167.35 229.36,-165.6 224.36,-163.85 224.36,-167.35"/>
</g>
<!-- ContainedActionList -->
<g id="node19" class="node">
<title>ContainedActionList</title>
<g id="a_node19"><a xlink:title="The base class for list of actions, without the published properties.">
<polygon fill="white" stroke="black" stroke-width="0" points="297.68,-149.2 202.73,-149.2 202.73,-130 297.68,-130 297.68,-149.2"/>
<text text-anchor="middle" x="250.2" y="-136.1" font-family="Vera Sans, DejaVu Sans, Liberation Sans, Arial, Helvetica, sans" font-size="10.00">ContainedActionList</text>
</a>
</g>
</g>
<!-- Component&#45;&gt;ContainedActionList -->
<g id="edge13" class="edge">
<title>Component&#45;&gt;ContainedActionList</title>
<path fill="none" stroke="black" d="M172.37,-136.4C172.37,-136.4 196.23,-136.4 196.23,-136.4"/>
<polygon fill="black" stroke="black" points="196.23,-138.15 201.23,-136.4 196.23,-134.65 196.23,-138.15"/>
</g>
<!-- FileOpenDialog -->
<g id="node24" class="node">
<title>FileOpenDialog</title>
<g id="a_node24"><a xlink:title="Class for Vista and newer Windows operating systems style file open dialogs.">
<polygon fill="white" stroke="black" stroke-width="0" points="287.18,-123.2 213.23,-123.2 213.23,-104 287.18,-104 287.18,-123.2"/>
<text text-anchor="middle" x="250.2" y="-110.1" font-family="Vera Sans, DejaVu Sans, Liberation Sans, Arial, Helvetica, sans" font-size="10.00">FileOpenDialog</text>
</a>
</g>
</g>
<!-- Component&#45;&gt;FileOpenDialog -->
<g id="edge22" class="edge">
<title>Component&#45;&gt;FileOpenDialog</title>
<path fill="none" stroke="black" d="M163.03,-130.21C163.03,-122.77 163.03,-113.6 163.03,-113.6 163.03,-113.6 206.72,-113.6 206.72,-113.6"/>
<polygon fill="black" stroke="black" points="206.72,-115.35 211.72,-113.6 206.72,-111.85 206.72,-115.35"/>
</g>
<!-- Menu -->
<g id="node27" class="node">
<title>Menu</title>
<g id="a_node27"><a xlink:title="TMenu is the base type for menu components such as TMainMenu and TPopupMenu.">
<polygon fill="white" stroke="black" stroke-width="0" points="265.8,-97.2 234.6,-97.2 234.6,-78 265.8,-78 265.8,-97.2"/>
<text text-anchor="middle" x="250.2" y="-84.1" font-family="Vera Sans, DejaVu Sans, Liberation Sans, Arial, Helvetica, sans" font-size="10.00">Menu</text>
</a>
</g>
</g>
<!-- Component&#45;&gt;Menu -->
<g id="edge26" class="edge">
<title>Component&#45;&gt;Menu</title>
<path fill="none" stroke="black" d="M153.45,-130.06C153.45,-115.05 153.45,-87.6 153.45,-87.6 153.45,-87.6 228.14,-87.6 228.14,-87.6"/>
<polygon fill="black" stroke="black" points="228.14,-89.35 233.14,-87.6 228.14,-85.85 228.14,-89.35"/>
</g>
<!-- MenuItem -->
<g id="node29" class="node">
<title>MenuItem</title>
<g id="a_node29"><a xlink:title="TMenuItem describes the properties of an item in a menu.">
<polygon fill="white" stroke="black" stroke-width="0" points="275.55,-71.2 224.85,-71.2 224.85,-52 275.55,-52 275.55,-71.2"/>
<text text-anchor="middle" x="250.2" y="-58.1" font-family="Vera Sans, DejaVu Sans, Liberation Sans, Arial, Helvetica, sans" font-size="10.00">MenuItem</text>
</a>
</g>
</g>
<!-- Component&#45;&gt;MenuItem -->
<g id="edge27" class="edge">
<title>Component&#45;&gt;MenuItem</title>
<path fill="none" stroke="black" d="M143.88,-130.04C143.88,-109.21 143.88,-61.6 143.88,-61.6 143.88,-61.6 218.49,-61.6 218.49,-61.6"/>
<polygon fill="black" stroke="black" points="218.49,-63.35 223.49,-61.6 218.49,-59.85 218.49,-63.35"/>
</g>
<!-- OpenDialog -->
<g id="node31" class="node">
<title>OpenDialog</title>
<g id="a_node31"><a xlink:title="TOpenDialog displays a file&#45;selection dialog.">
<polygon fill="white" stroke="black" stroke-width="0" points="279.3,-45.2 221.1,-45.2 221.1,-26 279.3,-26 279.3,-45.2"/>
<text text-anchor="middle" x="250.2" y="-32.1" font-family="Vera Sans, DejaVu Sans, Liberation Sans, Arial, Helvetica, sans" font-size="10.00">OpenDialog</text>
</a>
</g>
</g>
<!-- Component&#45;&gt;OpenDialog -->
<g id="edge28" class="edge">
<title>Component&#45;&gt;OpenDialog</title>
<path fill="none" stroke="black" d="M134.3,-130C134.3,-104.26 134.3,-35.6 134.3,-35.6 134.3,-35.6 214.74,-35.6 214.74,-35.6"/>
<polygon fill="black" stroke="black" points="214.74,-37.35 219.74,-35.6 214.74,-33.85 214.74,-37.35"/>
</g>
<!-- Timer -->
<g id="node35" class="node">
<title>Timer</title>
<g id="a_node35"><a xlink:title="TTimer encapsulates the Windows API timer functions.">
<polygon fill="white" stroke="black" stroke-width="0" points="266.18,-19.2 234.23,-19.2 234.23,0 266.18,0 266.18,-19.2"/>
<text text-anchor="middle" x="250.2" y="-6.1" font-family="Vera Sans, DejaVu Sans, Liberation Sans, Arial, Helvetica, sans" font-size="10.00">Timer</text>
</a>
</g>
</g>
<!-- Component&#45;&gt;Timer -->
<g id="edge33" class="edge">
<title>Component&#45;&gt;Timer</title>
<path fill="none" stroke="black" d="M124.73,-130.25C124.73,-100.44 124.73,-9.6 124.73,-9.6 124.73,-9.6 227.79,-9.6 227.79,-9.6"/>
<polygon fill="black" stroke="black" points="227.79,-11.35 232.79,-9.6 227.79,-7.85 227.79,-11.35"/>
</g>
<!-- BaseObjectBindSource -->
<g id="node10" class="node">
<title>BaseObjectBindSource</title>
<g id="a_node10"><a xlink:title="Is a bind source that supports adapters to connect to different types of data.">
<polygon fill="white" stroke="black" stroke-width="0" points="560.95,-279.2 452.5,-279.2 452.5,-260 560.95,-260 560.95,-279.2"/>
<text text-anchor="middle" x="506.73" y="-266.1" font-family="Vera Sans, DejaVu Sans, Liberation Sans, Arial, Helvetica, sans" font-size="10.00">BaseObjectBindSource</text>
</a>
</g>
</g>
<!-- BaseLinkingBindSource&#45;&gt;BaseObjectBindSource -->
<g id="edge6" class="edge">
<title>BaseLinkingBindSource&#45;&gt;BaseObjectBindSource</title>
<path fill="none" stroke="black" d="M438.43,-269.6C438.43,-269.6 446.23,-269.6 446.23,-269.6"/>
<polygon fill="black" stroke="black" points="446.23,-271.35 451.23,-269.6 446.23,-267.85 446.23,-271.35"/>
</g>
<!-- CustomPrototypeBindSource -->
<g id="node22" class="node">
<title>CustomPrototypeBindSource</title>
<g id="a_node22"><a xlink:title="Is a base class that implements a bind source for creating sample data.">
<polygon fill="white" stroke="black" stroke-width="0" points="708.9,-279.2 574.95,-279.2 574.95,-260 708.9,-260 708.9,-279.2"/>
<text text-anchor="middle" x="641.93" y="-266.1" font-family="Vera Sans, DejaVu Sans, Liberation Sans, Arial, Helvetica, sans" font-size="10.00">CustomPrototypeBindSource</text>
</a>
</g>
</g>
<!-- BaseObjectBindSource&#45;&gt;CustomPrototypeBindSource -->
<g id="edge20" class="edge">
<title>BaseObjectBindSource&#45;&gt;CustomPrototypeBindSource</title>
<path fill="none" stroke="black" d="M560.94,-269.6C560.94,-269.6 568.7,-269.6 568.7,-269.6"/>
<polygon fill="black" stroke="black" points="568.7,-271.35 573.7,-269.6 568.7,-267.85 568.7,-271.35"/>
</g>
<!-- ContainedAction -->
<g id="node18" class="node">
<title>ContainedAction</title>
<g id="a_node18"><a xlink:title="TContainedAction is the base class for actions that can be grouped by category and that can appear in action lists.">
<polygon fill="white" stroke="black" stroke-width="0" points="422.75,-253.2 343.55,-253.2 343.55,-234 422.75,-234 422.75,-253.2"/>
<text text-anchor="middle" x="383.15" y="-240.1" font-family="Vera Sans, DejaVu Sans, Liberation Sans, Arial, Helvetica, sans" font-size="10.00">ContainedAction</text>
</a>
</g>
</g>
<!-- BasicAction&#45;&gt;ContainedAction -->
<g id="edge12" class="edge">
<title>BasicAction&#45;&gt;ContainedAction</title>
<path fill="none" stroke="black" d="M280.04,-243.6C280.04,-243.6 337.31,-243.6 337.31,-243.6"/>
<polygon fill="black" stroke="black" points="337.31,-245.35 342.31,-243.6 337.31,-241.85 337.31,-245.35"/>
</g>
<!-- BindingsList -->
<g id="node13" class="node">
<title>BindingsList</title>
<g id="a_node13"><a xlink:title="Implements the bindings list component. TBindingsList is built on the TCustomBindingsList component and publishes additional properties that can be accessed from within the Object Inspector.">
<polygon fill="white" stroke="black" stroke-width="0" points="413.38,-227.2 352.93,-227.2 352.93,-208 413.38,-208 413.38,-227.2"/>
<text text-anchor="middle" x="383.15" y="-214.1" font-family="Vera Sans, DejaVu Sans, Liberation Sans, Arial, Helvetica, sans" font-size="10.00">BindingsList</text>
</a>
</g>
</g>
<!-- CustomBindingsList&#45;&gt;BindingsList -->
<g id="edge9" class="edge">
<title>CustomBindingsList&#45;&gt;BindingsList</title>
<path fill="none" stroke="black" d="M297.46,-194.8C303.39,-194.8 307.43,-194.8 307.43,-194.8 307.43,-194.8 307.43,-217.6 307.43,-217.6 307.43,-217.6 346.71,-217.6 346.71,-217.6"/>
<polygon fill="black" stroke="black" points="346.71,-219.35 351.71,-217.6 346.71,-215.85 346.71,-219.35"/>
</g>
<!-- BoundLabel -->
<g id="node15" class="node">
<title>BoundLabel</title>
<g id="a_node15"><a xlink:title="TBoundLabel is the type of a labeled edit control&#39;s label.">
<polygon fill="white" stroke="black" stroke-width="0" points="412.25,-201.2 354.05,-201.2 354.05,-182 412.25,-182 412.25,-201.2"/>
<text text-anchor="middle" x="383.15" y="-188.1" font-family="Vera Sans, DejaVu Sans, Liberation Sans, Arial, Helvetica, sans" font-size="10.00">BoundLabel</text>
</a>
</g>
</g>
<!-- Control&#45;&gt;BoundLabel -->
<g id="edge10" class="edge">
<title>Control&#45;&gt;BoundLabel</title>
<path fill="none" stroke="black" d="M269.31,-170.4C287.01,-170.4 310.61,-170.4 310.61,-170.4 310.61,-170.4 310.61,-188.4 310.61,-188.4 310.61,-188.4 347.55,-188.4 347.55,-188.4"/>
<polygon fill="black" stroke="black" points="347.55,-190.15 352.55,-188.4 347.55,-186.65 347.55,-190.15"/>
</g>
<!-- WinControl -->
<g id="node21" class="node">
<title>WinControl</title>
<g id="a_node21"><a xlink:title="TWinControl is the base class for all controls that are wrappers for Microsoft Windows screen objects.">
<polygon fill="white" stroke="black" stroke-width="0" points="411.13,-175.2 355.18,-175.2 355.18,-156 411.13,-156 411.13,-175.2"/>
<text text-anchor="middle" x="383.15" y="-162.1" font-family="Vera Sans, DejaVu Sans, Liberation Sans, Arial, Helvetica, sans" font-size="10.00">WinControl</text>
</a>
</g>
</g>
<!-- Control&#45;&gt;WinControl -->
<g id="edge35" class="edge">
<title>Control&#45;&gt;WinControl</title>
<path fill="none" stroke="black" d="M269.53,-165.6C269.53,-165.6 348.95,-165.6 348.95,-165.6"/>
<polygon fill="black" stroke="black" points="348.95,-167.35 353.95,-165.6 348.95,-163.85 348.95,-167.35"/>
</g>
<!-- Label -->
<g id="node25" class="node">
<title>Label</title>
<g id="a_node25"><a xlink:title="TLabel is a nonwindowed control that displays text on a form.">
<polygon fill="white" stroke="black" stroke-width="0" points="398.38,-149.2 367.93,-149.2 367.93,-130 398.38,-130 398.38,-149.2"/>
<text text-anchor="middle" x="383.15" y="-136.1" font-family="Vera Sans, DejaVu Sans, Liberation Sans, Arial, Helvetica, sans" font-size="10.00">Label</text>
</a>
</g>
</g>
<!-- Control&#45;&gt;Label -->
<g id="edge23" class="edge">
<title>Control&#45;&gt;Label</title>
<path fill="none" stroke="black" d="M269.4,-160.8C284.94,-160.8 304.24,-160.8 304.24,-160.8 304.24,-160.8 304.24,-139.6 304.24,-139.6 304.24,-139.6 361.42,-139.6 361.42,-139.6"/>
<polygon fill="black" stroke="black" points="361.42,-141.35 366.42,-139.6 361.42,-137.85 361.42,-141.35"/>
</g>
<!-- Persistent -->
<g id="node17" class="node">
<title>Persistent</title>
<g id="a_node17"><a xlink:title="TPersistent is the ancestor for all objects that have assignment and streaming capabilities.">
<polygon fill="white" stroke="black" stroke-width="0" points="101.15,-149.2 49.7,-149.2 49.7,-130 101.15,-130 101.15,-149.2"/>
<text text-anchor="middle" x="75.43" y="-136.1" font-family="Vera Sans, DejaVu Sans, Liberation Sans, Arial, Helvetica, sans" font-size="10.00">Persistent</text>
</a>
</g>
</g>
<!-- Persistent&#45;&gt;Component -->
<g id="edge11" class="edge">
<title>Persistent&#45;&gt;Component</title>
<path fill="none" stroke="black" d="M100.91,-139.6C100.91,-139.6 108.86,-139.6 108.86,-139.6"/>
<polygon fill="black" stroke="black" points="108.86,-141.35 113.86,-139.6 108.86,-137.85 108.86,-141.35"/>
</g>
<!-- ContainedAction&#45;&gt;CustomAction -->
<g id="edge15" class="edge">
<title>ContainedAction&#45;&gt;CustomAction</title>
<path fill="none" stroke="black" d="M422.59,-243.6C422.59,-243.6 465.73,-243.6 465.73,-243.6"/>
<polygon fill="black" stroke="black" points="465.73,-245.35 470.73,-243.6 465.73,-241.85 465.73,-245.35"/>
</g>
<!-- ContainedActionList&#45;&gt;CustomActionList -->
<g id="edge16" class="edge">
<title>ContainedActionList&#45;&gt;CustomActionList</title>
<path fill="none" stroke="black" d="M294.18,-130.21C294.18,-122.77 294.18,-113.6 294.18,-113.6 294.18,-113.6 334.23,-113.6 334.23,-113.6"/>
<polygon fill="black" stroke="black" points="334.23,-115.35 339.23,-113.6 334.23,-111.85 334.23,-115.35"/>
</g>
<!-- CustomControl -->
<g id="node20" class="node">
<title>CustomControl</title>
<g id="a_node20"><a xlink:title="Base class for controls that wrap Windows screen objects but perform their own rendering.">
<polygon fill="white" stroke="black" stroke-width="0" points="543.33,-175.2 470.12,-175.2 470.12,-156 543.33,-156 543.33,-175.2"/>
<text text-anchor="middle" x="506.73" y="-162.1" font-family="Vera Sans, DejaVu Sans, Liberation Sans, Arial, Helvetica, sans" font-size="10.00">CustomControl</text>
</a>
</g>
</g>
<!-- CustomControl&#45;&gt;CustomActivityIndicator -->
<g id="edge17" class="edge">
<title>CustomControl&#45;&gt;CustomActivityIndicator</title>
<path fill="none" stroke="black" d="M506.73,-174.99C506.73,-182.43 506.73,-191.6 506.73,-191.6 506.73,-191.6 579.64,-191.6 579.64,-191.6"/>
<polygon fill="black" stroke="black" points="579.64,-193.35 584.64,-191.6 579.64,-189.85 579.64,-193.35"/>
</g>
<!-- CustomToggleSwitch -->
<g id="node23" class="node">
<title>CustomToggleSwitch</title>
<g id="a_node23"><a xlink:title="The base class for TToggleSwitch.">
<polygon fill="white" stroke="black" stroke-width="0" points="692.03,-175.2 591.83,-175.2 591.83,-156 692.03,-156 692.03,-175.2"/>
<text text-anchor="middle" x="641.93" y="-162.1" font-family="Vera Sans, DejaVu Sans, Liberation Sans, Arial, Helvetica, sans" font-size="10.00">CustomToggleSwitch</text>
</a>
</g>
</g>
<!-- CustomControl&#45;&gt;CustomToggleSwitch -->
<g id="edge21" class="edge">
<title>CustomControl&#45;&gt;CustomToggleSwitch</title>
<path fill="none" stroke="black" d="M543.31,-165.6C543.31,-165.6 585.34,-165.6 585.34,-165.6"/>
<polygon fill="black" stroke="black" points="585.34,-167.35 590.34,-165.6 585.34,-163.85 585.34,-167.35"/>
</g>
<!-- MediaPlayer -->
<g id="node28" class="node">
<title>MediaPlayer</title>
<g id="a_node28"><a xlink:title="TMediaPlayer controls devices that provide a Media Control Interface (MCI) driver.">
<polygon fill="white" stroke="black" stroke-width="0" points="672.53,-149.2 611.33,-149.2 611.33,-130 672.53,-130 672.53,-149.2"/>
<text text-anchor="middle" x="641.93" y="-136.1" font-family="Vera Sans, DejaVu Sans, Liberation Sans, Arial, Helvetica, sans" font-size="10.00">MediaPlayer</text>
</a>
</g>
</g>
<!-- CustomControl&#45;&gt;MediaPlayer -->
<g id="edge25" class="edge">
<title>CustomControl&#45;&gt;MediaPlayer</title>
<path fill="none" stroke="black" d="M537.7,-156.21C537.7,-148.77 537.7,-139.6 537.7,-139.6 537.7,-139.6 604.99,-139.6 604.99,-139.6"/>
<polygon fill="black" stroke="black" points="604.99,-141.35 609.99,-139.6 604.99,-137.85 604.99,-141.35"/>
</g>
<!-- WinControl&#45;&gt;CustomControl -->
<g id="edge19" class="edge">
<title>WinControl&#45;&gt;CustomControl</title>
<path fill="none" stroke="black" d="M410.88,-165.6C410.88,-165.6 463.66,-165.6 463.66,-165.6"/>
<polygon fill="black" stroke="black" points="463.66,-167.35 468.66,-165.6 463.66,-163.85 463.66,-167.35"/>
</g>
<!-- PrototypeBindSource -->
<g id="node33" class="node">
<title>PrototypeBindSource</title>
<g id="a_node33"><a xlink:title="Is a bind source for creating sample data.">
<polygon fill="white" stroke="black" stroke-width="0" points="822.35,-279.2 722.9,-279.2 722.9,-260 822.35,-260 822.35,-279.2"/>
<text text-anchor="middle" x="772.62" y="-266.1" font-family="Vera Sans, DejaVu Sans, Liberation Sans, Arial, Helvetica, sans" font-size="10.00">PrototypeBindSource</text>
</a>
</g>
</g>
<!-- CustomPrototypeBindSource&#45;&gt;PrototypeBindSource -->
<g id="edge31" class="edge">
<title>CustomPrototypeBindSource&#45;&gt;PrototypeBindSource</title>
<path fill="none" stroke="black" d="M708.81,-269.6C708.81,-269.6 716.48,-269.6 716.48,-269.6"/>
<polygon fill="black" stroke="black" points="716.48,-271.35 721.48,-269.6 716.48,-267.85 716.48,-271.35"/>
</g>
<!-- ToggleSwitch -->
<g id="node36" class="node">
<title>ToggleSwitch</title>
<g id="a_node36"><a xlink:title="A clickable control that allows a user to toggle between an On state and an Off state.">
<polygon fill="white" stroke="black" stroke-width="0" points="805.48,-175.2 739.77,-175.2 739.77,-156 805.48,-156 805.48,-175.2"/>
<text text-anchor="middle" x="772.62" y="-162.1" font-family="Vera Sans, DejaVu Sans, Liberation Sans, Arial, Helvetica, sans" font-size="10.00">ToggleSwitch</text>
</a>
</g>
</g>
<!-- CustomToggleSwitch&#45;&gt;ToggleSwitch -->
<g id="edge34" class="edge">
<title>CustomToggleSwitch&#45;&gt;ToggleSwitch</title>
<path fill="none" stroke="black" d="M691.71,-165.6C691.71,-165.6 733.45,-165.6 733.45,-165.6"/>
<polygon fill="black" stroke="black" points="733.45,-167.35 738.45,-165.6 733.45,-163.85 733.45,-167.35"/>
</g>
<!-- MainMenu -->
<g id="node26" class="node">
<title>MainMenu</title>
<g id="a_node26"><a xlink:title="TMainMenu encapsulates a menu bar and its accompanying drop&#45;down menus for a form.">
<polygon fill="white" stroke="black" stroke-width="0" points="409.25,-97.2 357.05,-97.2 357.05,-78 409.25,-78 409.25,-97.2"/>
<text text-anchor="middle" x="383.15" y="-84.1" font-family="Vera Sans, DejaVu Sans, Liberation Sans, Arial, Helvetica, sans" font-size="10.00">MainMenu</text>
</a>
</g>
</g>
<!-- Menu&#45;&gt;MainMenu -->
<g id="edge24" class="edge">
<title>Menu&#45;&gt;MainMenu</title>
<path fill="none" stroke="black" d="M265.71,-90.8C265.71,-90.8 350.74,-90.8 350.74,-90.8"/>
<polygon fill="black" stroke="black" points="350.74,-92.55 355.74,-90.8 350.74,-89.05 350.74,-92.55"/>
</g>
<!-- PopupMenu -->
<g id="node32" class="node">
<title>PopupMenu</title>
<g id="a_node32"><a xlink:title="TPopupMenu encapsulates the properties, methods, and events of a pop&#45;up menu.">
<polygon fill="white" stroke="black" stroke-width="0" points="412.63,-71.2 353.68,-71.2 353.68,-52 412.63,-52 412.63,-71.2"/>
<text text-anchor="middle" x="383.15" y="-58.1" font-family="Vera Sans, DejaVu Sans, Liberation Sans, Arial, Helvetica, sans" font-size="10.00">PopupMenu</text>
</a>
</g>
</g>
<!-- Menu&#45;&gt;PopupMenu -->
<g id="edge30" class="edge">
<title>Menu&#45;&gt;PopupMenu</title>
<path fill="none" stroke="black" d="M265.73,-84.4C277.15,-84.4 290.68,-84.4 290.68,-84.4 290.68,-84.4 290.68,-61.6 290.68,-61.6 290.68,-61.6 347.38,-61.6 347.38,-61.6"/>
<polygon fill="black" stroke="black" points="347.38,-63.35 352.38,-61.6 347.38,-59.85 347.38,-63.35"/>
</g>
<!-- Object -->
<g id="node30" class="node">
<title>Object</title>
<g id="a_node30"><a xlink:title="TObject is the ultimate ancestor of all objects and components.">
<polygon fill="white" stroke="black" stroke-width="0" points="35.7,-149.2 0,-149.2 0,-130 35.7,-130 35.7,-149.2"/>
<text text-anchor="middle" x="17.85" y="-136.1" font-family="Vera Sans, DejaVu Sans, Liberation Sans, Arial, Helvetica, sans" font-size="10.00">Object</text>
</a>
</g>
</g>
<!-- Object&#45;&gt;Persistent -->
<g id="edge29" class="edge">
<title>Object&#45;&gt;Persistent</title>
<path fill="none" stroke="black" d="M35.44,-139.6C35.44,-139.6 43.59,-139.6 43.59,-139.6"/>
<polygon fill="black" stroke="black" points="43.59,-141.35 48.59,-139.6 43.59,-137.85 43.59,-141.35"/>
</g>
<!-- SaveDialog -->
<g id="node34" class="node">
<title>SaveDialog</title>
<g id="a_node34"><a xlink:title="TSaveDialog displays a &quot;Save As&quot; dialog for saving files.">
<polygon fill="white" stroke="black" stroke-width="0" points="411.88,-45.2 354.43,-45.2 354.43,-26 411.88,-26 411.88,-45.2"/>
<text text-anchor="middle" x="383.15" y="-32.1" font-family="Vera Sans, DejaVu Sans, Liberation Sans, Arial, Helvetica, sans" font-size="10.00">SaveDialog</text>
</a>
</g>
</g>
<!-- OpenDialog&#45;&gt;SaveDialog -->
<g id="edge32" class="edge">
<title>OpenDialog&#45;&gt;SaveDialog</title>
<path fill="none" stroke="black" d="M279.05,-35.6C279.05,-35.6 348.3,-35.6 348.3,-35.6"/>
<polygon fill="black" stroke="black" points="348.3,-37.35 353.3,-35.6 348.3,-33.85 348.3,-37.35"/>
</g>
</g>
</svg>
