<?xml version="1.0" encoding="UTF-8" standalone="no"?>
<!DOCTYPE svg PUBLIC "-//W3C//DTD SVG 1.1//EN"
 "http://www.w3.org/Graphics/SVG/1.1/DTD/svg11.dtd">
<!-- Generated by graphviz version 12.2.0 (20241103.1931)
 -->
<!-- Title: inheritance36422f4bdb Pages: 1 -->
<svg width="496pt" height="79pt"
 viewBox="0.00 0.00 496.20 79.20" xmlns="http://www.w3.org/2000/svg" xmlns:xlink="http://www.w3.org/1999/xlink">
<g id="graph0" class="graph" transform="scale(1 1) rotate(0) translate(4 75.2)">
<title>inheritance36422f4bdb</title>
<!-- BufferedFileStream -->
<g id="node1" class="node">
<title>BufferedFileStream</title>
<g id="a_node1"><a xlink:title="TBufferedFileStream adds buffering support to TFileStream.">
<polygon fill="white" stroke="black" stroke-width="0" points="410,-19.2 319.55,-19.2 319.55,0 410,0 410,-19.2"/>
<text text-anchor="middle" x="364.77" y="-6.1" font-family="Vera Sans, DejaVu Sans, Liberation Sans, Arial, Helvetica, sans" font-size="10.00">BufferedFileStream</text>
</a>
</g>
</g>
<!-- FileStream -->
<g id="node2" class="node">
<title>FileStream</title>
<g id="a_node2"><a xlink:title="TFileStream enables applications to read from and write to a file on disk.">
<polygon fill="white" stroke="black" stroke-width="0" points="292.43,-19.2 237.97,-19.2 237.97,0 292.43,0 292.43,-19.2"/>
<text text-anchor="middle" x="265.2" y="-6.1" font-family="Vera Sans, DejaVu Sans, Liberation Sans, Arial, Helvetica, sans" font-size="10.00">FileStream</text>
</a>
</g>
</g>
<!-- FileStream&#45;&gt;BufferedFileStream -->
<g id="edge1" class="edge">
<title>FileStream&#45;&gt;BufferedFileStream</title>
<path fill="none" stroke="black" d="M292.41,-9.6C292.41,-9.6 313.08,-9.6 313.08,-9.6"/>
<polygon fill="black" stroke="black" points="313.08,-11.35 318.08,-9.6 313.08,-7.85 313.08,-11.35"/>
</g>
<!-- BytesStream -->
<g id="node3" class="node">
<title>BytesStream</title>
<g id="a_node3"><a xlink:title="TBytesStream is a stream that stores its data in bytes.">
<polygon fill="white" stroke="black" stroke-width="0" points="396.88,-71.2 332.67,-71.2 332.67,-52 396.88,-52 396.88,-71.2"/>
<text text-anchor="middle" x="364.77" y="-58.1" font-family="Vera Sans, DejaVu Sans, Liberation Sans, Arial, Helvetica, sans" font-size="10.00">BytesStream</text>
</a>
</g>
</g>
<!-- StringStream -->
<g id="node10" class="node">
<title>StringStream</title>
<g id="a_node10"><a xlink:title="TStringStream provides file&#45;like access to information stored as a long string.">
<polygon fill="white" stroke="black" stroke-width="0" points="488.2,-71.2 424,-71.2 424,-52 488.2,-52 488.2,-71.2"/>
<text text-anchor="middle" x="456.1" y="-58.1" font-family="Vera Sans, DejaVu Sans, Liberation Sans, Arial, Helvetica, sans" font-size="10.00">StringStream</text>
</a>
</g>
</g>
<!-- BytesStream&#45;&gt;StringStream -->
<g id="edge9" class="edge">
<title>BytesStream&#45;&gt;StringStream</title>
<path fill="none" stroke="black" d="M396.72,-61.6C396.72,-61.6 417.51,-61.6 417.51,-61.6"/>
<polygon fill="black" stroke="black" points="417.51,-63.35 422.51,-61.6 417.51,-59.85 417.51,-63.35"/>
</g>
<!-- MemoryStream -->
<g id="node4" class="node">
<title>MemoryStream</title>
<g id="a_node4"><a xlink:title="TMemoryStream is a stream that stores its data in dynamic memory.">
<polygon fill="white" stroke="black" stroke-width="0" points="302.18,-71.2 228.22,-71.2 228.22,-52 302.18,-52 302.18,-71.2"/>
<text text-anchor="middle" x="265.2" y="-58.1" font-family="Vera Sans, DejaVu Sans, Liberation Sans, Arial, Helvetica, sans" font-size="10.00">MemoryStream</text>
</a>
</g>
</g>
<!-- MemoryStream&#45;&gt;BytesStream -->
<g id="edge2" class="edge">
<title>MemoryStream&#45;&gt;BytesStream</title>
<path fill="none" stroke="black" d="M302,-61.6C302,-61.6 326.21,-61.6 326.21,-61.6"/>
<polygon fill="black" stroke="black" points="326.21,-63.35 331.21,-61.6 326.21,-59.85 326.21,-63.35"/>
</g>
<!-- CustomMemoryStream -->
<g id="node5" class="node">
<title>CustomMemoryStream</title>
<g id="a_node5"><a xlink:title="TCustomMemoryStream is an abstract base class used as the common ancestor for memory streams.">
<polygon fill="white" stroke="black" stroke-width="0" points="210.85,-45.2 102.4,-45.2 102.4,-26 210.85,-26 210.85,-45.2"/>
<text text-anchor="middle" x="156.62" y="-32.1" font-family="Vera Sans, DejaVu Sans, Liberation Sans, Arial, Helvetica, sans" font-size="10.00">CustomMemoryStream</text>
</a>
</g>
</g>
<!-- CustomMemoryStream&#45;&gt;MemoryStream -->
<g id="edge6" class="edge">
<title>CustomMemoryStream&#45;&gt;MemoryStream</title>
<path fill="none" stroke="black" d="M156.62,-44.99C156.62,-52.43 156.62,-61.6 156.62,-61.6 156.62,-61.6 221.93,-61.6 221.93,-61.6"/>
<polygon fill="black" stroke="black" points="221.93,-63.35 226.93,-61.6 221.93,-59.85 221.93,-63.35"/>
</g>
<!-- ResourceStream -->
<g id="node9" class="node">
<title>ResourceStream</title>
<g id="a_node9"><a xlink:title="TResourceStream is a memory stream that provides access to the compiled resources in an application.">
<polygon fill="white" stroke="black" stroke-width="0" points="305.55,-45.2 224.85,-45.2 224.85,-26 305.55,-26 305.55,-45.2"/>
<text text-anchor="middle" x="265.2" y="-32.1" font-family="Vera Sans, DejaVu Sans, Liberation Sans, Arial, Helvetica, sans" font-size="10.00">ResourceStream</text>
</a>
</g>
</g>
<!-- CustomMemoryStream&#45;&gt;ResourceStream -->
<g id="edge7" class="edge">
<title>CustomMemoryStream&#45;&gt;ResourceStream</title>
<path fill="none" stroke="black" d="M210.59,-35.6C210.59,-35.6 218.62,-35.6 218.62,-35.6"/>
<polygon fill="black" stroke="black" points="218.62,-37.35 223.62,-35.6 218.62,-33.85 218.62,-37.35"/>
</g>
<!-- Stream -->
<g id="node6" class="node">
<title>Stream</title>
<g id="a_node6"><a xlink:title="TStream is the base class type for stream objects that can read from or write to various kinds of storage media, such as disk files, dynamic memory, and so on.">
<polygon fill="white" stroke="black" stroke-width="0" points="88.4,-32.2 49.7,-32.2 49.7,-13 88.4,-13 88.4,-32.2"/>
<text text-anchor="middle" x="69.05" y="-19.1" font-family="Vera Sans, DejaVu Sans, Liberation Sans, Arial, Helvetica, sans" font-size="10.00">Stream</text>
</a>
</g>
</g>
<!-- Stream&#45;&gt;CustomMemoryStream -->
<g id="edge3" class="edge">
<title>Stream&#45;&gt;CustomMemoryStream</title>
<path fill="none" stroke="black" d="M69.05,-32.15C69.05,-35.62 69.05,-38.7 69.05,-38.7 69.05,-38.7 96.14,-38.7 96.14,-38.7"/>
<polygon fill="black" stroke="black" points="96.14,-40.45 101.14,-38.7 96.14,-36.95 96.14,-40.45"/>
</g>
<!-- HandleStream -->
<g id="node7" class="node">
<title>HandleStream</title>
<g id="a_node7"><a xlink:title="THandleStream enables applications to read from and write to communications resources identified by a handle.">
<polygon fill="white" stroke="black" stroke-width="0" points="191.35,-19.2 121.9,-19.2 121.9,0 191.35,0 191.35,-19.2"/>
<text text-anchor="middle" x="156.62" y="-6.1" font-family="Vera Sans, DejaVu Sans, Liberation Sans, Arial, Helvetica, sans" font-size="10.00">HandleStream</text>
</a>
</g>
</g>
<!-- Stream&#45;&gt;HandleStream -->
<g id="edge5" class="edge">
<title>Stream&#45;&gt;HandleStream</title>
<path fill="none" stroke="black" d="M69.05,-13.05C69.05,-9.58 69.05,-6.5 69.05,-6.5 69.05,-6.5 115.5,-6.5 115.5,-6.5"/>
<polygon fill="black" stroke="black" points="115.5,-8.25 120.5,-6.5 115.5,-4.75 115.5,-8.25"/>
</g>
<!-- HandleStream&#45;&gt;FileStream -->
<g id="edge4" class="edge">
<title>HandleStream&#45;&gt;FileStream</title>
<path fill="none" stroke="black" d="M191.28,-9.6C191.28,-9.6 231.58,-9.6 231.58,-9.6"/>
<polygon fill="black" stroke="black" points="231.58,-11.35 236.58,-9.6 231.58,-7.85 231.58,-11.35"/>
</g>
<!-- Object -->
<g id="node8" class="node">
<title>Object</title>
<g id="a_node8"><a xlink:title="TObject is the ultimate ancestor of all objects and components.">
<polygon fill="white" stroke="black" stroke-width="0" points="35.7,-32.2 0,-32.2 0,-13 35.7,-13 35.7,-32.2"/>
<text text-anchor="middle" x="17.85" y="-19.1" font-family="Vera Sans, DejaVu Sans, Liberation Sans, Arial, Helvetica, sans" font-size="10.00">Object</text>
</a>
</g>
</g>
<!-- Object&#45;&gt;Stream -->
<g id="edge8" class="edge">
<title>Object&#45;&gt;Stream</title>
<path fill="none" stroke="black" d="M35.47,-22.6C35.47,-22.6 43.31,-22.6 43.31,-22.6"/>
<polygon fill="black" stroke="black" points="43.31,-24.35 48.31,-22.6 43.31,-20.85 43.31,-24.35"/>
</g>
</g>
</svg>
