<?xml version="1.0" encoding="UTF-8" standalone="no"?>
<!DOCTYPE svg PUBLIC "-//W3C//DTD SVG 1.1//EN"
 "http://www.w3.org/Graphics/SVG/1.1/DTD/svg11.dtd">
<!-- Generated by graphviz version 12.2.0 (20241103.1931)
 -->
<!-- Title: inheritance40f1b23eb5 Pages: 1 -->
<svg width="782pt" height="678pt"
 viewBox="0.00 0.00 782.00 678.20" xmlns="http://www.w3.org/2000/svg" xmlns:xlink="http://www.w3.org/1999/xlink">
<g id="graph0" class="graph" transform="scale(1 1) rotate(0) translate(4 674.2)">
<title>inheritance40f1b23eb5</title>
<!-- BitBtn -->
<g id="node1" class="node">
<title>BitBtn</title>
<g id="a_node1"><a xlink:title="TBitBtn is a push button control that can include a bitmap on its face.">
<polygon fill="white" stroke="black" stroke-width="0" points="370.83,-552.2 336.63,-552.2 336.63,-533 370.83,-533 370.83,-552.2"/>
<text text-anchor="middle" x="353.73" y="-539.1" font-family="Vera Sans, DejaVu Sans, Liberation Sans, Arial, Helvetica, sans" font-size="10.00">BitBtn</text>
</a>
</g>
</g>
<!-- WinControl -->
<g id="node2" class="node">
<title>WinControl</title>
<g id="a_node2"><a xlink:title="TWinControl is the base class for all controls that are wrappers for Microsoft Windows screen objects.">
<polygon fill="white" stroke="black" stroke-width="0" points="295.25,-240.2 239.3,-240.2 239.3,-221 295.25,-221 295.25,-240.2"/>
<text text-anchor="middle" x="267.28" y="-227.1" font-family="Vera Sans, DejaVu Sans, Liberation Sans, Arial, Helvetica, sans" font-size="10.00">WinControl</text>
</a>
</g>
</g>
<!-- WinControl&#45;&gt;BitBtn -->
<g id="edge1" class="edge">
<title>WinControl&#45;&gt;BitBtn</title>
<path fill="none" stroke="black" d="M244.9,-239.94C244.9,-291.85 244.9,-542.6 244.9,-542.6 244.9,-542.6 330.21,-542.6 330.21,-542.6"/>
<polygon fill="black" stroke="black" points="330.21,-544.35 335.21,-542.6 330.21,-540.85 330.21,-544.35"/>
</g>
<!-- Button -->
<g id="node3" class="node">
<title>Button</title>
<g id="a_node3"><a xlink:title="TButton is a push button control.">
<polygon fill="white" stroke="black" stroke-width="0" points="371.58,-526.2 335.88,-526.2 335.88,-507 371.58,-507 371.58,-526.2"/>
<text text-anchor="middle" x="353.73" y="-513.1" font-family="Vera Sans, DejaVu Sans, Liberation Sans, Arial, Helvetica, sans" font-size="10.00">Button</text>
</a>
</g>
</g>
<!-- WinControl&#45;&gt;Button -->
<g id="edge2" class="edge">
<title>WinControl&#45;&gt;Button</title>
<path fill="none" stroke="black" d="M250.49,-240.12C250.49,-289.74 250.49,-516.6 250.49,-516.6 250.49,-516.6 329.7,-516.6 329.7,-516.6"/>
<polygon fill="black" stroke="black" points="329.7,-518.35 334.7,-516.6 329.7,-514.85 329.7,-518.35"/>
</g>
<!-- CheckBox -->
<g id="node4" class="node">
<title>CheckBox</title>
<g id="a_node4"><a xlink:title="TCheckBox represents a check box that can be on (checked) or off (unchecked).">
<polygon fill="white" stroke="black" stroke-width="0" points="380.2,-500.2 327.25,-500.2 327.25,-481 380.2,-481 380.2,-500.2"/>
<text text-anchor="middle" x="353.73" y="-487.1" font-family="Vera Sans, DejaVu Sans, Liberation Sans, Arial, Helvetica, sans" font-size="10.00">CheckBox</text>
</a>
</g>
</g>
<!-- WinControl&#45;&gt;CheckBox -->
<g id="edge3" class="edge">
<title>WinControl&#45;&gt;CheckBox</title>
<path fill="none" stroke="black" d="M256.09,-240.16C256.09,-287.07 256.09,-490.6 256.09,-490.6 256.09,-490.6 320.79,-490.6 320.79,-490.6"/>
<polygon fill="black" stroke="black" points="320.79,-492.35 325.79,-490.6 320.79,-488.85 320.79,-492.35"/>
</g>
<!-- CustomListControl -->
<g id="node6" class="node">
<title>CustomListControl</title>
<g id="a_node6"><a xlink:title="Wrapper for Pascal class TCustomListControl">
<polygon fill="white" stroke="black" stroke-width="0" points="398.2,-474.2 309.25,-474.2 309.25,-455 398.2,-455 398.2,-474.2"/>
<text text-anchor="middle" x="353.73" y="-461.1" font-family="Vera Sans, DejaVu Sans, Liberation Sans, Arial, Helvetica, sans" font-size="10.00">CustomListControl</text>
</a>
</g>
</g>
<!-- WinControl&#45;&gt;CustomListControl -->
<g id="edge14" class="edge">
<title>WinControl&#45;&gt;CustomListControl</title>
<path fill="none" stroke="black" d="M261.68,-240.06C261.68,-283.84 261.68,-464.6 261.68,-464.6 261.68,-464.6 302.81,-464.6 302.81,-464.6"/>
<polygon fill="black" stroke="black" points="302.81,-466.35 307.81,-464.6 302.81,-462.85 302.81,-466.35"/>
</g>
<!-- CustomControl -->
<g id="node12" class="node">
<title>CustomControl</title>
<g id="a_node12"><a xlink:title="Base class for controls that wrap Windows screen objects but perform their own rendering.">
<polygon fill="white" stroke="black" stroke-width="0" points="390.33,-448.2 317.13,-448.2 317.13,-429 390.33,-429 390.33,-448.2"/>
<text text-anchor="middle" x="353.73" y="-435.1" font-family="Vera Sans, DejaVu Sans, Liberation Sans, Arial, Helvetica, sans" font-size="10.00">CustomControl</text>
</a>
</g>
</g>
<!-- WinControl&#45;&gt;CustomControl -->
<g id="edge9" class="edge">
<title>WinControl&#45;&gt;CustomControl</title>
<path fill="none" stroke="black" d="M267.28,-240.05C267.28,-279.91 267.28,-432.2 267.28,-432.2 267.28,-432.2 310.8,-432.2 310.8,-432.2"/>
<polygon fill="black" stroke="black" points="310.8,-433.95 315.8,-432.2 310.8,-430.45 310.8,-433.95"/>
</g>
<!-- CustomEdit -->
<g id="node15" class="node">
<title>CustomEdit</title>
<g id="a_node15"><a xlink:title="TCustomEdit is the base class from which all edit&#45;box and memo controls are derived.">
<polygon fill="white" stroke="black" stroke-width="0" points="383.2,-331.2 324.25,-331.2 324.25,-312 383.2,-312 383.2,-331.2"/>
<text text-anchor="middle" x="353.73" y="-318.1" font-family="Vera Sans, DejaVu Sans, Liberation Sans, Arial, Helvetica, sans" font-size="10.00">CustomEdit</text>
</a>
</g>
</g>
<!-- WinControl&#45;&gt;CustomEdit -->
<g id="edge11" class="edge">
<title>WinControl&#45;&gt;CustomEdit</title>
<path fill="none" stroke="black" d="M272.87,-240C272.87,-263.25 272.87,-321.6 272.87,-321.6 272.87,-321.6 318.02,-321.6 318.02,-321.6"/>
<polygon fill="black" stroke="black" points="318.02,-323.35 323.02,-321.6 318.02,-319.85 318.02,-323.35"/>
</g>
<!-- CustomForm -->
<g id="node16" class="node">
<title>CustomForm</title>
<g id="a_node16"><a xlink:title="TCustomForm is the base class from which to derive a window such as a form or dialog.">
<polygon fill="white" stroke="black" stroke-width="0" points="385.83,-305.2 321.63,-305.2 321.63,-286 385.83,-286 385.83,-305.2"/>
<text text-anchor="middle" x="353.73" y="-292.1" font-family="Vera Sans, DejaVu Sans, Liberation Sans, Arial, Helvetica, sans" font-size="10.00">CustomForm</text>
</a>
</g>
</g>
<!-- WinControl&#45;&gt;CustomForm -->
<g id="edge12" class="edge">
<title>WinControl&#45;&gt;CustomForm</title>
<path fill="none" stroke="black" d="M278.47,-240.19C278.47,-258.27 278.47,-295.6 278.47,-295.6 278.47,-295.6 315.29,-295.6 315.29,-295.6"/>
<polygon fill="black" stroke="black" points="315.29,-297.35 320.29,-295.6 315.29,-293.85 315.29,-297.35"/>
</g>
<!-- CustomStatusBar -->
<g id="node20" class="node">
<title>CustomStatusBar</title>
<g id="a_node20"><a xlink:title="TCustomStatusBar is the base class for objects that represent status bars.">
<polygon fill="white" stroke="black" stroke-width="0" points="396.33,-279.2 311.13,-279.2 311.13,-260 396.33,-260 396.33,-279.2"/>
<text text-anchor="middle" x="353.73" y="-266.1" font-family="Vera Sans, DejaVu Sans, Liberation Sans, Arial, Helvetica, sans" font-size="10.00">CustomStatusBar</text>
</a>
</g>
</g>
<!-- WinControl&#45;&gt;CustomStatusBar -->
<g id="edge18" class="edge">
<title>WinControl&#45;&gt;CustomStatusBar</title>
<path fill="none" stroke="black" d="M284.06,-240.04C284.06,-251.58 284.06,-269.6 284.06,-269.6 284.06,-269.6 304.68,-269.6 304.68,-269.6"/>
<polygon fill="black" stroke="black" points="304.68,-271.35 309.68,-269.6 304.68,-267.85 304.68,-271.35"/>
</g>
<!-- CustomTabControl -->
<g id="node21" class="node">
<title>CustomTabControl</title>
<g id="a_node21"><a xlink:title="TCustomTabControl is the base type for tab control components such as TTabControl and TPageControl.">
<polygon fill="white" stroke="black" stroke-width="0" points="398.2,-253.2 309.25,-253.2 309.25,-234 398.2,-234 398.2,-253.2"/>
<text text-anchor="middle" x="353.73" y="-240.1" font-family="Vera Sans, DejaVu Sans, Liberation Sans, Arial, Helvetica, sans" font-size="10.00">CustomTabControl</text>
</a>
</g>
</g>
<!-- WinControl&#45;&gt;CustomTabControl -->
<g id="edge19" class="edge">
<title>WinControl&#45;&gt;CustomTabControl</title>
<path fill="none" stroke="black" d="M289.66,-240.15C289.66,-243.62 289.66,-246.7 289.66,-246.7 289.66,-246.7 303.06,-246.7 303.06,-246.7"/>
<polygon fill="black" stroke="black" points="303.06,-248.45 308.06,-246.7 303.06,-244.95 303.06,-248.45"/>
</g>
<!-- DateTimePicker -->
<g id="node22" class="node">
<title>DateTimePicker</title>
<g id="a_node22"><a xlink:title="TDateTimePicker displays a list box for entering dates or times.">
<polygon fill="white" stroke="black" stroke-width="0" points="392.58,-227.2 314.88,-227.2 314.88,-208 392.58,-208 392.58,-227.2"/>
<text text-anchor="middle" x="353.73" y="-214.1" font-family="Vera Sans, DejaVu Sans, Liberation Sans, Arial, Helvetica, sans" font-size="10.00">DateTimePicker</text>
</a>
</g>
</g>
<!-- WinControl&#45;&gt;DateTimePicker -->
<g id="edge20" class="edge">
<title>WinControl&#45;&gt;DateTimePicker</title>
<path fill="none" stroke="black" d="M289.66,-221.05C289.66,-217.58 289.66,-214.5 289.66,-214.5 289.66,-214.5 308.46,-214.5 308.46,-214.5"/>
<polygon fill="black" stroke="black" points="308.46,-216.25 313.46,-214.5 308.46,-212.75 308.46,-216.25"/>
</g>
<!-- PageControl -->
<g id="node35" class="node">
<title>PageControl</title>
<g id="a_node35"><a xlink:title="TPageControl is a set of pages used to make a multiple page dialog box.">
<polygon fill="white" stroke="black" stroke-width="0" points="384.33,-201.2 323.13,-201.2 323.13,-182 384.33,-182 384.33,-201.2"/>
<text text-anchor="middle" x="353.73" y="-188.1" font-family="Vera Sans, DejaVu Sans, Liberation Sans, Arial, Helvetica, sans" font-size="10.00">PageControl</text>
</a>
</g>
</g>
<!-- WinControl&#45;&gt;PageControl -->
<g id="edge32" class="edge">
<title>WinControl&#45;&gt;PageControl</title>
<path fill="none" stroke="black" d="M284.06,-221.16C284.06,-209.62 284.06,-191.6 284.06,-191.6 284.06,-191.6 316.86,-191.6 316.86,-191.6"/>
<polygon fill="black" stroke="black" points="316.86,-193.35 321.86,-191.6 316.86,-189.85 316.86,-193.35"/>
</g>
<!-- RadioButton -->
<g id="node37" class="node">
<title>RadioButton</title>
<g id="a_node37"><a xlink:title="TRadioButton is a wrapper for a system radio button.">
<polygon fill="white" stroke="black" stroke-width="0" points="384.33,-175.2 323.13,-175.2 323.13,-156 384.33,-156 384.33,-175.2"/>
<text text-anchor="middle" x="353.73" y="-162.1" font-family="Vera Sans, DejaVu Sans, Liberation Sans, Arial, Helvetica, sans" font-size="10.00">RadioButton</text>
</a>
</g>
</g>
<!-- WinControl&#45;&gt;RadioButton -->
<g id="edge35" class="edge">
<title>WinControl&#45;&gt;RadioButton</title>
<path fill="none" stroke="black" d="M278.47,-221.01C278.47,-202.93 278.47,-165.6 278.47,-165.6 278.47,-165.6 317.03,-165.6 317.03,-165.6"/>
<polygon fill="black" stroke="black" points="317.03,-167.35 322.03,-165.6 317.03,-163.85 317.03,-167.35"/>
</g>
<!-- ScrollBar -->
<g id="node39" class="node">
<title>ScrollBar</title>
<g id="a_node39"><a xlink:title="Wrapper for Pascal class TScrollBar">
<polygon fill="white" stroke="black" stroke-width="0" points="377.2,-149.2 330.25,-149.2 330.25,-130 377.2,-130 377.2,-149.2"/>
<text text-anchor="middle" x="353.73" y="-136.1" font-family="Vera Sans, DejaVu Sans, Liberation Sans, Arial, Helvetica, sans" font-size="10.00">ScrollBar</text>
</a>
</g>
</g>
<!-- WinControl&#45;&gt;ScrollBar -->
<g id="edge37" class="edge">
<title>WinControl&#45;&gt;ScrollBar</title>
<path fill="none" stroke="black" d="M272.87,-221.2C272.87,-197.95 272.87,-139.6 272.87,-139.6 272.87,-139.6 323.82,-139.6 323.82,-139.6"/>
<polygon fill="black" stroke="black" points="323.82,-141.35 328.82,-139.6 323.82,-137.85 323.82,-141.35"/>
</g>
<!-- SpinButton -->
<g id="node40" class="node">
<title>SpinButton</title>
<g id="a_node40"><a xlink:title="TSpinButton allows the user to navigate through a range of values using the arrow buttons.">
<polygon fill="white" stroke="black" stroke-width="0" points="381.33,-123.2 326.13,-123.2 326.13,-104 381.33,-104 381.33,-123.2"/>
<text text-anchor="middle" x="353.73" y="-110.1" font-family="Vera Sans, DejaVu Sans, Liberation Sans, Arial, Helvetica, sans" font-size="10.00">SpinButton</text>
</a>
</g>
</g>
<!-- WinControl&#45;&gt;SpinButton -->
<g id="edge38" class="edge">
<title>WinControl&#45;&gt;SpinButton</title>
<path fill="none" stroke="black" d="M267.28,-221.03C267.28,-193.08 267.28,-113.6 267.28,-113.6 267.28,-113.6 319.86,-113.6 319.86,-113.6"/>
<polygon fill="black" stroke="black" points="319.86,-115.35 324.86,-113.6 319.86,-111.85 319.86,-115.35"/>
</g>
<!-- StaticText -->
<g id="node42" class="node">
<title>StaticText</title>
<g id="a_node42"><a xlink:title="TStaticText is a windowed control that displays text on a form.">
<polygon fill="white" stroke="black" stroke-width="0" points="379.45,-97.2 328,-97.2 328,-78 379.45,-78 379.45,-97.2"/>
<text text-anchor="middle" x="353.73" y="-84.1" font-family="Vera Sans, DejaVu Sans, Liberation Sans, Arial, Helvetica, sans" font-size="10.00">StaticText</text>
</a>
</g>
</g>
<!-- WinControl&#45;&gt;StaticText -->
<g id="edge40" class="edge">
<title>WinControl&#45;&gt;StaticText</title>
<path fill="none" stroke="black" d="M261.68,-221.22C261.68,-189.4 261.68,-87.6 261.68,-87.6 261.68,-87.6 321.57,-87.6 321.57,-87.6"/>
<polygon fill="black" stroke="black" points="321.57,-89.35 326.57,-87.6 321.57,-85.85 321.57,-89.35"/>
</g>
<!-- TabSheet -->
<g id="node46" class="node">
<title>TabSheet</title>
<g id="a_node46"><a xlink:title="TTabSheet is an individual page in a TPageControl object.">
<polygon fill="white" stroke="black" stroke-width="0" points="377.95,-71.2 329.5,-71.2 329.5,-52 377.95,-52 377.95,-71.2"/>
<text text-anchor="middle" x="353.73" y="-58.1" font-family="Vera Sans, DejaVu Sans, Liberation Sans, Arial, Helvetica, sans" font-size="10.00">TabSheet</text>
</a>
</g>
</g>
<!-- WinControl&#45;&gt;TabSheet -->
<g id="edge44" class="edge">
<title>WinControl&#45;&gt;TabSheet</title>
<path fill="none" stroke="black" d="M256.09,-221.03C256.09,-185.28 256.09,-61.6 256.09,-61.6 256.09,-61.6 323.08,-61.6 323.08,-61.6"/>
<polygon fill="black" stroke="black" points="323.08,-63.35 328.08,-61.6 323.08,-59.85 323.08,-63.35"/>
</g>
<!-- ToolBar -->
<g id="node47" class="node">
<title>ToolBar</title>
<g id="a_node47"><a xlink:title="TToolBar manages tool buttons and other controls, arranging them in rows and automatically adjusting their sizes and positions.">
<polygon fill="white" stroke="black" stroke-width="0" points="373.83,-45.2 333.63,-45.2 333.63,-26 373.83,-26 373.83,-45.2"/>
<text text-anchor="middle" x="353.73" y="-32.1" font-family="Vera Sans, DejaVu Sans, Liberation Sans, Arial, Helvetica, sans" font-size="10.00">ToolBar</text>
</a>
</g>
</g>
<!-- WinControl&#45;&gt;ToolBar -->
<g id="edge45" class="edge">
<title>WinControl&#45;&gt;ToolBar</title>
<path fill="none" stroke="black" d="M250.49,-221.19C250.49,-182.24 250.49,-35.6 250.49,-35.6 250.49,-35.6 327.31,-35.6 327.31,-35.6"/>
<polygon fill="black" stroke="black" points="327.31,-37.35 332.31,-35.6 327.31,-33.85 327.31,-37.35"/>
</g>
<!-- TrackBar -->
<g id="node48" class="node">
<title>TrackBar</title>
<g id="a_node48"><a xlink:title="TTrackBar is a wrapper for a track bar control.">
<polygon fill="white" stroke="black" stroke-width="0" points="377.2,-19.2 330.25,-19.2 330.25,0 377.2,0 377.2,-19.2"/>
<text text-anchor="middle" x="353.73" y="-6.1" font-family="Vera Sans, DejaVu Sans, Liberation Sans, Arial, Helvetica, sans" font-size="10.00">TrackBar</text>
</a>
</g>
</g>
<!-- WinControl&#45;&gt;TrackBar -->
<g id="edge46" class="edge">
<title>WinControl&#45;&gt;TrackBar</title>
<path fill="none" stroke="black" d="M244.9,-221.1C244.9,-178.8 244.9,-9.6 244.9,-9.6 244.9,-9.6 323.86,-9.6 323.86,-9.6"/>
<polygon fill="black" stroke="black" points="323.86,-11.35 328.86,-9.6 323.86,-7.85 323.86,-11.35"/>
</g>
<!-- ColorBox -->
<g id="node5" class="node">
<title>ColorBox</title>
<g id="a_node5"><a xlink:title="TColorBox represents a combo box that lets users select a color.">
<polygon fill="white" stroke="black" stroke-width="0" points="504.9,-643.2 457.2,-643.2 457.2,-624 504.9,-624 504.9,-643.2"/>
<text text-anchor="middle" x="481.05" y="-630.1" font-family="Vera Sans, DejaVu Sans, Liberation Sans, Arial, Helvetica, sans" font-size="10.00">ColorBox</text>
</a>
</g>
</g>
<!-- CustomListControl&#45;&gt;ColorBox -->
<g id="edge4" class="edge">
<title>CustomListControl&#45;&gt;ColorBox</title>
<path fill="none" stroke="black" d="M384.7,-474.17C384.7,-509.92 384.7,-633.6 384.7,-633.6 384.7,-633.6 450.72,-633.6 450.72,-633.6"/>
<polygon fill="black" stroke="black" points="450.72,-635.35 455.72,-633.6 450.72,-631.85 450.72,-635.35"/>
</g>
<!-- ComboBox -->
<g id="node7" class="node">
<title>ComboBox</title>
<g id="a_node7"><a xlink:title="TComboBox combines an edit box with a scrollable list.">
<polygon fill="white" stroke="black" stroke-width="0" points="509.03,-617.2 453.08,-617.2 453.08,-598 509.03,-598 509.03,-617.2"/>
<text text-anchor="middle" x="481.05" y="-604.1" font-family="Vera Sans, DejaVu Sans, Liberation Sans, Arial, Helvetica, sans" font-size="10.00">ComboBox</text>
</a>
</g>
</g>
<!-- CustomListControl&#45;&gt;ComboBox -->
<g id="edge5" class="edge">
<title>CustomListControl&#45;&gt;ComboBox</title>
<path fill="none" stroke="black" d="M389.2,-473.98C389.2,-505.8 389.2,-607.6 389.2,-607.6 389.2,-607.6 446.98,-607.6 446.98,-607.6"/>
<polygon fill="black" stroke="black" points="446.98,-609.35 451.98,-607.6 446.98,-605.85 446.98,-609.35"/>
</g>
<!-- CustomMultiSelectListControl -->
<g id="node18" class="node">
<title>CustomMultiSelectListControl</title>
<g id="a_node18"><a xlink:title="Wrapper for Pascal class TCustomMultiSelectListControl">
<polygon fill="white" stroke="black" stroke-width="0" points="549.9,-591.2 412.2,-591.2 412.2,-572 549.9,-572 549.9,-591.2"/>
<text text-anchor="middle" x="481.05" y="-578.1" font-family="Vera Sans, DejaVu Sans, Liberation Sans, Arial, Helvetica, sans" font-size="10.00">CustomMultiSelectListControl</text>
</a>
</g>
</g>
<!-- CustomListControl&#45;&gt;CustomMultiSelectListControl -->
<g id="edge16" class="edge">
<title>CustomListControl&#45;&gt;CustomMultiSelectListControl</title>
<path fill="none" stroke="black" d="M393.7,-474.17C393.7,-502.12 393.7,-581.6 393.7,-581.6 393.7,-581.6 405.71,-581.6 405.71,-581.6"/>
<polygon fill="black" stroke="black" points="405.71,-583.35 410.71,-581.6 405.71,-579.85 405.71,-583.35"/>
</g>
<!-- Component -->
<g id="node8" class="node">
<title>Component</title>
<g id="a_node8"><a xlink:title="TComponent is the common ancestor of all component classes.">
<polygon fill="white" stroke="black" stroke-width="0" points="172.6,-240.2 115.15,-240.2 115.15,-221 172.6,-221 172.6,-240.2"/>
<text text-anchor="middle" x="143.88" y="-227.1" font-family="Vera Sans, DejaVu Sans, Liberation Sans, Arial, Helvetica, sans" font-size="10.00">Component</text>
</a>
</g>
</g>
<!-- Control -->
<g id="node10" class="node">
<title>Control</title>
<g id="a_node10"><a xlink:title="TControl is the base class for all components that are visible at run time.">
<polygon fill="white" stroke="black" stroke-width="0" points="225.3,-240.2 186.6,-240.2 186.6,-221 225.3,-221 225.3,-240.2"/>
<text text-anchor="middle" x="205.95" y="-227.1" font-family="Vera Sans, DejaVu Sans, Liberation Sans, Arial, Helvetica, sans" font-size="10.00">Control</text>
</a>
</g>
</g>
<!-- Component&#45;&gt;Control -->
<g id="edge7" class="edge">
<title>Component&#45;&gt;Control</title>
<path fill="none" stroke="black" d="M172.37,-230.6C172.37,-230.6 180.16,-230.6 180.16,-230.6"/>
<polygon fill="black" stroke="black" points="180.16,-232.35 185.16,-230.6 180.16,-228.85 180.16,-232.35"/>
</g>
<!-- Persistent -->
<g id="node9" class="node">
<title>Persistent</title>
<g id="a_node9"><a xlink:title="TPersistent is the ancestor for all objects that have assignment and streaming capabilities.">
<polygon fill="white" stroke="black" stroke-width="0" points="101.15,-240.2 49.7,-240.2 49.7,-221 101.15,-221 101.15,-240.2"/>
<text text-anchor="middle" x="75.43" y="-227.1" font-family="Vera Sans, DejaVu Sans, Liberation Sans, Arial, Helvetica, sans" font-size="10.00">Persistent</text>
</a>
</g>
</g>
<!-- Persistent&#45;&gt;Component -->
<g id="edge6" class="edge">
<title>Persistent&#45;&gt;Component</title>
<path fill="none" stroke="black" d="M100.91,-230.6C100.91,-230.6 108.86,-230.6 108.86,-230.6"/>
<polygon fill="black" stroke="black" points="108.86,-232.35 113.86,-230.6 108.86,-228.85 108.86,-232.35"/>
</g>
<!-- Control&#45;&gt;WinControl -->
<g id="edge47" class="edge">
<title>Control&#45;&gt;WinControl</title>
<path fill="none" stroke="black" d="M225.02,-230.6C225.02,-230.6 233.15,-230.6 233.15,-230.6"/>
<polygon fill="black" stroke="black" points="233.15,-232.35 238.15,-230.6 233.15,-228.85 233.15,-232.35"/>
</g>
<!-- ControlBar -->
<g id="node11" class="node">
<title>ControlBar</title>
<g id="a_node11"><a xlink:title="TControlBar manages the layout of toolbar components.">
<polygon fill="white" stroke="black" stroke-width="0" points="507.9,-565.2 454.2,-565.2 454.2,-546 507.9,-546 507.9,-565.2"/>
<text text-anchor="middle" x="481.05" y="-552.1" font-family="Vera Sans, DejaVu Sans, Liberation Sans, Arial, Helvetica, sans" font-size="10.00">ControlBar</text>
</a>
</g>
</g>
<!-- CustomControl&#45;&gt;ControlBar -->
<g id="edge8" class="edge">
<title>CustomControl&#45;&gt;ControlBar</title>
<path fill="none" stroke="black" d="M317.41,-445C311.07,-445 306.45,-445 306.45,-445 306.45,-445 306.45,-558.7 306.45,-558.7 306.45,-558.7 448.02,-558.7 448.02,-558.7"/>
<polygon fill="black" stroke="black" points="448.02,-560.45 453.02,-558.7 448.02,-556.95 448.02,-560.45"/>
</g>
<!-- CustomGrid -->
<g id="node14" class="node">
<title>CustomGrid</title>
<g id="a_node14"><a xlink:title="TCustomGrid is the base type for all components that present information in a two&#45;dimensional grid.">
<polygon fill="white" stroke="black" stroke-width="0" points="510.9,-539.2 451.2,-539.2 451.2,-520 510.9,-520 510.9,-539.2"/>
<text text-anchor="middle" x="481.05" y="-526.1" font-family="Vera Sans, DejaVu Sans, Liberation Sans, Arial, Helvetica, sans" font-size="10.00">CustomGrid</text>
</a>
</g>
</g>
<!-- CustomControl&#45;&gt;CustomGrid -->
<g id="edge13" class="edge">
<title>CustomControl&#45;&gt;CustomGrid</title>
<path fill="none" stroke="black" d="M317.33,-441.8C309.57,-441.8 303.65,-441.8 303.65,-441.8 303.65,-441.8 303.65,-652.2 303.65,-652.2 303.65,-652.2 553.4,-652.2 553.4,-652.2 553.4,-652.2 553.4,-532.8 553.4,-532.8 553.4,-532.8 517.41,-532.8 517.41,-532.8"/>
<polygon fill="black" stroke="black" points="517.41,-531.05 512.41,-532.8 517.41,-534.55 517.41,-531.05"/>
</g>
<!-- GroupBox -->
<g id="node26" class="node">
<title>GroupBox</title>
<g id="a_node26"><a xlink:title="TGroupBox represents a Windows group box.">
<polygon fill="white" stroke="black" stroke-width="0" points="506.4,-513.2 455.7,-513.2 455.7,-494 506.4,-494 506.4,-513.2"/>
<text text-anchor="middle" x="481.05" y="-500.1" font-family="Vera Sans, DejaVu Sans, Liberation Sans, Arial, Helvetica, sans" font-size="10.00">GroupBox</text>
</a>
</g>
</g>
<!-- CustomControl&#45;&gt;GroupBox -->
<g id="edge24" class="edge">
<title>CustomControl&#45;&gt;GroupBox</title>
<path fill="none" stroke="black" d="M317.29,-438.6C308.13,-438.6 300.85,-438.6 300.85,-438.6 300.85,-438.6 300.85,-661.2 300.85,-661.2 300.85,-661.2 556.9,-661.2 556.9,-661.2 556.9,-661.2 556.9,-503.6 556.9,-503.6 556.9,-503.6 512.82,-503.6 512.82,-503.6"/>
<polygon fill="black" stroke="black" points="512.82,-501.85 507.82,-503.6 512.82,-505.35 512.82,-501.85"/>
</g>
<!-- Header -->
<g id="node27" class="node">
<title>Header</title>
<g id="a_node27"><a xlink:title="THeader is a sectioned visual control that displays text and allows each section to be resized with the mouse.">
<polygon fill="white" stroke="black" stroke-width="0" points="500.4,-487.2 461.7,-487.2 461.7,-468 500.4,-468 500.4,-487.2"/>
<text text-anchor="middle" x="481.05" y="-474.1" font-family="Vera Sans, DejaVu Sans, Liberation Sans, Arial, Helvetica, sans" font-size="10.00">Header</text>
</a>
</g>
</g>
<!-- CustomControl&#45;&gt;Header -->
<g id="edge25" class="edge">
<title>CustomControl&#45;&gt;Header</title>
<path fill="none" stroke="black" d="M317.21,-435.4C306.72,-435.4 298.05,-435.4 298.05,-435.4 298.05,-435.4 298.05,-670.2 298.05,-670.2 298.05,-670.2 560.4,-670.2 560.4,-670.2 560.4,-670.2 560.4,-477.6 560.4,-477.6 560.4,-477.6 506.77,-477.6 506.77,-477.6"/>
<polygon fill="black" stroke="black" points="506.77,-475.85 501.77,-477.6 506.77,-479.35 506.77,-475.85"/>
</g>
<!-- Notebook -->
<g id="node31" class="node">
<title>Notebook</title>
<g id="a_node31"><a xlink:title="TNotebook displays multiple pages, each with its own set of controls.">
<polygon fill="white" stroke="black" stroke-width="0" points="505.65,-461.2 456.45,-461.2 456.45,-442 505.65,-442 505.65,-461.2"/>
<text text-anchor="middle" x="481.05" y="-448.1" font-family="Vera Sans, DejaVu Sans, Liberation Sans, Arial, Helvetica, sans" font-size="10.00">Notebook</text>
</a>
</g>
</g>
<!-- CustomControl&#45;&gt;Notebook -->
<g id="edge29" class="edge">
<title>CustomControl&#45;&gt;Notebook</title>
<path fill="none" stroke="black" d="M373.38,-429.08C373.38,-426.63 373.38,-424.67 373.38,-424.67 373.38,-424.67 460.76,-424.67 460.76,-424.67 460.76,-424.67 460.76,-435.67 460.76,-435.67"/>
<polygon fill="black" stroke="black" points="459.01,-435.67 460.76,-440.67 462.51,-435.67 459.01,-435.67"/>
</g>
<!-- Page -->
<g id="node34" class="node">
<title>Page</title>
<g id="a_node34"><a xlink:title="Specifies a page in a TNotebook control.">
<polygon fill="white" stroke="black" stroke-width="0" points="495.9,-435.2 466.2,-435.2 466.2,-416 495.9,-416 495.9,-435.2"/>
<text text-anchor="middle" x="481.05" y="-422.1" font-family="Vera Sans, DejaVu Sans, Liberation Sans, Arial, Helvetica, sans" font-size="10.00">Page</text>
</a>
</g>
</g>
<!-- CustomControl&#45;&gt;Page -->
<g id="edge31" class="edge">
<title>CustomControl&#45;&gt;Page</title>
<path fill="none" stroke="black" d="M363.55,-429.04C363.55,-424.62 363.55,-420.33 363.55,-420.33 363.55,-420.33 460.13,-420.33 460.13,-420.33"/>
<polygon fill="black" stroke="black" points="460.13,-422.08 465.13,-420.33 460.13,-418.58 460.13,-422.08"/>
</g>
<!-- Panel -->
<g id="node36" class="node">
<title>Panel</title>
<g id="a_node36"><a xlink:title="Wrapper for Pascal class TPanel">
<polygon fill="white" stroke="black" stroke-width="0" points="497.03,-409.2 465.08,-409.2 465.08,-390 497.03,-390 497.03,-409.2"/>
<text text-anchor="middle" x="481.05" y="-396.1" font-family="Vera Sans, DejaVu Sans, Liberation Sans, Arial, Helvetica, sans" font-size="10.00">Panel</text>
</a>
</g>
</g>
<!-- CustomControl&#45;&gt;Panel -->
<g id="edge33" class="edge">
<title>CustomControl&#45;&gt;Panel</title>
<path fill="none" stroke="black" d="M343.9,-429.16C343.9,-417.62 343.9,-399.6 343.9,-399.6 343.9,-399.6 458.8,-399.6 458.8,-399.6"/>
<polygon fill="black" stroke="black" points="458.8,-401.35 463.8,-399.6 458.8,-397.85 458.8,-401.35"/>
</g>
<!-- RadioGroup -->
<g id="node38" class="node">
<title>RadioGroup</title>
<g id="a_node38"><a xlink:title="TRadioGroup represents a group of radio buttons that function together.">
<polygon fill="white" stroke="black" stroke-width="0" points="510.53,-383.2 451.58,-383.2 451.58,-364 510.53,-364 510.53,-383.2"/>
<text text-anchor="middle" x="481.05" y="-370.1" font-family="Vera Sans, DejaVu Sans, Liberation Sans, Arial, Helvetica, sans" font-size="10.00">RadioGroup</text>
</a>
</g>
</g>
<!-- CustomControl&#45;&gt;RadioGroup -->
<g id="edge36" class="edge">
<title>CustomControl&#45;&gt;RadioGroup</title>
<path fill="none" stroke="black" d="M334.08,-429.01C334.08,-410.93 334.08,-373.6 334.08,-373.6 334.08,-373.6 445.15,-373.6 445.15,-373.6"/>
<polygon fill="black" stroke="black" points="445.15,-375.35 450.15,-373.6 445.15,-371.85 445.15,-375.35"/>
</g>
<!-- CustomDrawGrid -->
<g id="node13" class="node">
<title>CustomDrawGrid</title>
<g id="a_node13"><a xlink:title="TCustomDrawGrid is the base class for grids that publish events for painting and manipulating the cells in the grid.">
<polygon fill="white" stroke="black" stroke-width="0" points="646.85,-539.2 563.9,-539.2 563.9,-520 646.85,-520 646.85,-539.2"/>
<text text-anchor="middle" x="605.38" y="-526.1" font-family="Vera Sans, DejaVu Sans, Liberation Sans, Arial, Helvetica, sans" font-size="10.00">CustomDrawGrid</text>
</a>
</g>
</g>
<!-- DrawGrid -->
<g id="node23" class="node">
<title>DrawGrid</title>
<g id="a_node23"><a xlink:title="TDrawGrid represents a grid control that displays information in column and row format.">
<polygon fill="white" stroke="black" stroke-width="0" points="709.3,-539.2 660.85,-539.2 660.85,-520 709.3,-520 709.3,-539.2"/>
<text text-anchor="middle" x="685.08" y="-526.1" font-family="Vera Sans, DejaVu Sans, Liberation Sans, Arial, Helvetica, sans" font-size="10.00">DrawGrid</text>
</a>
</g>
</g>
<!-- CustomDrawGrid&#45;&gt;DrawGrid -->
<g id="edge21" class="edge">
<title>CustomDrawGrid&#45;&gt;DrawGrid</title>
<path fill="none" stroke="black" d="M646.63,-529.6C646.63,-529.6 654.75,-529.6 654.75,-529.6"/>
<polygon fill="black" stroke="black" points="654.75,-531.35 659.75,-529.6 654.75,-527.85 654.75,-531.35"/>
</g>
<!-- CustomGrid&#45;&gt;CustomDrawGrid -->
<g id="edge10" class="edge">
<title>CustomGrid&#45;&gt;CustomDrawGrid</title>
<path fill="none" stroke="black" d="M510.83,-526.4C510.83,-526.4 557.58,-526.4 557.58,-526.4"/>
<polygon fill="black" stroke="black" points="557.58,-528.15 562.58,-526.4 557.57,-524.65 557.58,-528.15"/>
</g>
<!-- CustomMemo -->
<g id="node17" class="node">
<title>CustomMemo</title>
<g id="a_node17"><a xlink:title="TCustomMemo is the base type for memo components, which are multiline edit boxes, including TMemo and TDBMemo.">
<polygon fill="white" stroke="black" stroke-width="0" points="515.4,-357.2 446.7,-357.2 446.7,-338 515.4,-338 515.4,-357.2"/>
<text text-anchor="middle" x="481.05" y="-344.1" font-family="Vera Sans, DejaVu Sans, Liberation Sans, Arial, Helvetica, sans" font-size="10.00">CustomMemo</text>
</a>
</g>
</g>
<!-- CustomEdit&#45;&gt;CustomMemo -->
<g id="edge15" class="edge">
<title>CustomEdit&#45;&gt;CustomMemo</title>
<path fill="none" stroke="black" d="M353.73,-330.99C353.73,-338.43 353.73,-347.6 353.73,-347.6 353.73,-347.6 440.42,-347.6 440.42,-347.6"/>
<polygon fill="black" stroke="black" points="440.42,-349.35 445.42,-347.6 440.42,-345.85 440.42,-349.35"/>
</g>
<!-- CustomNumberBox -->
<g id="node19" class="node">
<title>CustomNumberBox</title>
<g id="a_node19"><a xlink:title="TCustomEdit is the base class from which all edit&#45;box and memo controls are derived.">
<polygon fill="white" stroke="black" stroke-width="0" points="527.78,-331.2 434.33,-331.2 434.33,-312 527.78,-312 527.78,-331.2"/>
<text text-anchor="middle" x="481.05" y="-318.1" font-family="Vera Sans, DejaVu Sans, Liberation Sans, Arial, Helvetica, sans" font-size="10.00">CustomNumberBox</text>
</a>
</g>
</g>
<!-- CustomEdit&#45;&gt;CustomNumberBox -->
<g id="edge17" class="edge">
<title>CustomEdit&#45;&gt;CustomNumberBox</title>
<path fill="none" stroke="black" d="M382.94,-327.36C382.94,-327.36 427.99,-327.36 427.99,-327.36"/>
<polygon fill="black" stroke="black" points="427.99,-329.11 432.99,-327.36 427.99,-325.61 427.99,-329.11"/>
</g>
<!-- Edit -->
<g id="node24" class="node">
<title>Edit</title>
<g id="a_node24"><a xlink:title="TEdit is a wrapper for a Windows single&#45;line edit control.">
<polygon fill="white" stroke="black" stroke-width="0" points="493.28,-305.2 468.83,-305.2 468.83,-286 493.28,-286 493.28,-305.2"/>
<text text-anchor="middle" x="481.05" y="-292.1" font-family="Vera Sans, DejaVu Sans, Liberation Sans, Arial, Helvetica, sans" font-size="10.00">Edit</text>
</a>
</g>
</g>
<!-- CustomEdit&#45;&gt;Edit -->
<g id="edge22" class="edge">
<title>CustomEdit&#45;&gt;Edit</title>
<path fill="none" stroke="black" d="M382.96,-323.52C396.74,-323.52 410.2,-323.52 410.2,-323.52 410.2,-323.52 410.2,-298.8 410.2,-298.8 410.2,-298.8 462.52,-298.8 462.52,-298.8"/>
<polygon fill="black" stroke="black" points="462.52,-300.55 467.52,-298.8 462.52,-297.05 462.52,-300.55"/>
</g>
<!-- LabeledEdit -->
<g id="node28" class="node">
<title>LabeledEdit</title>
<g id="a_node28"><a xlink:title="TLabeledEdit is an edit control that has an associated label.">
<polygon fill="white" stroke="black" stroke-width="0" points="510.15,-279.2 451.95,-279.2 451.95,-260 510.15,-260 510.15,-279.2"/>
<text text-anchor="middle" x="481.05" y="-266.1" font-family="Vera Sans, DejaVu Sans, Liberation Sans, Arial, Helvetica, sans" font-size="10.00">LabeledEdit</text>
</a>
</g>
</g>
<!-- CustomEdit&#45;&gt;LabeledEdit -->
<g id="edge26" class="edge">
<title>CustomEdit&#45;&gt;LabeledEdit</title>
<path fill="none" stroke="black" d="M383.19,-319.68C396.03,-319.68 408.2,-319.68 408.2,-319.68 408.2,-319.68 408.2,-272.8 408.2,-272.8 408.2,-272.8 445.74,-272.8 445.74,-272.8"/>
<polygon fill="black" stroke="black" points="445.74,-274.55 450.74,-272.8 445.74,-271.05 445.74,-274.55"/>
</g>
<!-- SpinEdit -->
<g id="node41" class="node">
<title>SpinEdit</title>
<g id="a_node41"><a xlink:title="TSpinEdit combines a TEdit box with a TSpinButton.">
<polygon fill="white" stroke="black" stroke-width="0" points="503.03,-253.2 459.08,-253.2 459.08,-234 503.03,-234 503.03,-253.2"/>
<text text-anchor="middle" x="481.05" y="-240.1" font-family="Vera Sans, DejaVu Sans, Liberation Sans, Arial, Helvetica, sans" font-size="10.00">SpinEdit</text>
</a>
</g>
</g>
<!-- CustomEdit&#45;&gt;SpinEdit -->
<g id="edge39" class="edge">
<title>CustomEdit&#45;&gt;SpinEdit</title>
<path fill="none" stroke="black" d="M383.03,-315.84C395.05,-315.84 406.2,-315.84 406.2,-315.84 406.2,-315.84 406.2,-246.8 406.2,-246.8 406.2,-246.8 452.89,-246.8 452.89,-246.8"/>
<polygon fill="black" stroke="black" points="452.89,-248.55 457.89,-246.8 452.89,-245.05 452.89,-248.55"/>
</g>
<!-- Form -->
<g id="node25" class="node">
<title>Form</title>
<g id="a_node25"><a xlink:title="TForm represents a standard application window (form).">
<polygon fill="white" stroke="black" stroke-width="0" points="495.9,-227.2 466.2,-227.2 466.2,-208 495.9,-208 495.9,-227.2"/>
<text text-anchor="middle" x="481.05" y="-214.1" font-family="Vera Sans, DejaVu Sans, Liberation Sans, Arial, Helvetica, sans" font-size="10.00">Form</text>
</a>
</g>
</g>
<!-- CustomForm&#45;&gt;Form -->
<g id="edge23" class="edge">
<title>CustomForm&#45;&gt;Form</title>
<path fill="none" stroke="black" d="M385.69,-292.4C395.71,-292.4 404.2,-292.4 404.2,-292.4 404.2,-292.4 404.2,-217.6 404.2,-217.6 404.2,-217.6 459.72,-217.6 459.72,-217.6"/>
<polygon fill="black" stroke="black" points="459.72,-219.35 464.72,-217.6 459.72,-215.85 459.72,-219.35"/>
</g>
<!-- Memo -->
<g id="node30" class="node">
<title>Memo</title>
<g id="a_node30"><a xlink:title="TMemo is a wrapper for a Windows multiline edit control.">
<polygon fill="white" stroke="black" stroke-width="0" points="622.48,-357.2 588.28,-357.2 588.28,-338 622.48,-338 622.48,-357.2"/>
<text text-anchor="middle" x="605.38" y="-344.1" font-family="Vera Sans, DejaVu Sans, Liberation Sans, Arial, Helvetica, sans" font-size="10.00">Memo</text>
</a>
</g>
</g>
<!-- CustomMemo&#45;&gt;Memo -->
<g id="edge28" class="edge">
<title>CustomMemo&#45;&gt;Memo</title>
<path fill="none" stroke="black" d="M515.35,-347.6C515.35,-347.6 581.81,-347.6 581.81,-347.6"/>
<polygon fill="black" stroke="black" points="581.81,-349.35 586.81,-347.6 581.81,-345.85 581.81,-349.35"/>
</g>
<!-- ListBox -->
<g id="node29" class="node">
<title>ListBox</title>
<g id="a_node29"><a xlink:title="TListBox displays a collection of items in a scrollable list.">
<polygon fill="white" stroke="black" stroke-width="0" points="625.48,-591.2 585.28,-591.2 585.28,-572 625.48,-572 625.48,-591.2"/>
<text text-anchor="middle" x="605.38" y="-578.1" font-family="Vera Sans, DejaVu Sans, Liberation Sans, Arial, Helvetica, sans" font-size="10.00">ListBox</text>
</a>
</g>
</g>
<!-- CustomMultiSelectListControl&#45;&gt;ListBox -->
<g id="edge27" class="edge">
<title>CustomMultiSelectListControl&#45;&gt;ListBox</title>
<path fill="none" stroke="black" d="M549.76,-581.6C549.76,-581.6 578.84,-581.6 578.84,-581.6"/>
<polygon fill="black" stroke="black" points="578.84,-583.35 583.84,-581.6 578.84,-579.85 578.84,-583.35"/>
</g>
<!-- NumberBox -->
<g id="node32" class="node">
<title>NumberBox</title>
<g id="a_node32"><a xlink:title="TNumberBox is a numeric input control that supports the input of integer numbers, floating point numbers with a given set of decimal digits and proper formatting, and currency values.">
<polygon fill="white" stroke="black" stroke-width="0" points="634.85,-331.2 575.9,-331.2 575.9,-312 634.85,-312 634.85,-331.2"/>
<text text-anchor="middle" x="605.38" y="-318.1" font-family="Vera Sans, DejaVu Sans, Liberation Sans, Arial, Helvetica, sans" font-size="10.00">NumberBox</text>
</a>
</g>
</g>
<!-- CustomNumberBox&#45;&gt;NumberBox -->
<g id="edge30" class="edge">
<title>CustomNumberBox&#45;&gt;NumberBox</title>
<path fill="none" stroke="black" d="M527.7,-321.6C527.7,-321.6 569.66,-321.6 569.66,-321.6"/>
<polygon fill="black" stroke="black" points="569.66,-323.35 574.66,-321.6 569.66,-319.85 569.66,-323.35"/>
</g>
<!-- StatusBar -->
<g id="node43" class="node">
<title>StatusBar</title>
<g id="a_node43"><a xlink:title="TStatusBar represents a status bar.">
<polygon fill="white" stroke="black" stroke-width="0" points="506.4,-201.2 455.7,-201.2 455.7,-182 506.4,-182 506.4,-201.2"/>
<text text-anchor="middle" x="481.05" y="-188.1" font-family="Vera Sans, DejaVu Sans, Liberation Sans, Arial, Helvetica, sans" font-size="10.00">StatusBar</text>
</a>
</g>
</g>
<!-- CustomStatusBar&#45;&gt;StatusBar -->
<g id="edge41" class="edge">
<title>CustomStatusBar&#45;&gt;StatusBar</title>
<path fill="none" stroke="black" d="M396.26,-266.4C399.88,-266.4 402.2,-266.4 402.2,-266.4 402.2,-266.4 402.2,-191.6 402.2,-191.6 402.2,-191.6 449.59,-191.6 449.59,-191.6"/>
<polygon fill="black" stroke="black" points="449.59,-193.35 454.59,-191.6 449.59,-189.85 449.59,-193.35"/>
</g>
<!-- TabControl -->
<g id="node45" class="node">
<title>TabControl</title>
<g id="a_node45"><a xlink:title="TTabControl is a tab set that has the appearance of notebook dividers.">
<polygon fill="white" stroke="black" stroke-width="0" points="508.28,-175.2 453.83,-175.2 453.83,-156 508.28,-156 508.28,-175.2"/>
<text text-anchor="middle" x="481.05" y="-162.1" font-family="Vera Sans, DejaVu Sans, Liberation Sans, Arial, Helvetica, sans" font-size="10.00">TabControl</text>
</a>
</g>
</g>
<!-- CustomTabControl&#45;&gt;TabControl -->
<g id="edge43" class="edge">
<title>CustomTabControl&#45;&gt;TabControl</title>
<path fill="none" stroke="black" d="M397.96,-240.4C399.38,-240.4 400.2,-240.4 400.2,-240.4 400.2,-240.4 400.2,-165.6 400.2,-165.6 400.2,-165.6 447.61,-165.6 447.61,-165.6"/>
<polygon fill="black" stroke="black" points="447.61,-167.35 452.61,-165.6 447.61,-163.85 447.61,-167.35"/>
</g>
<!-- StringGrid -->
<g id="node44" class="node">
<title>StringGrid</title>
<g id="a_node44"><a xlink:title="TStringGrid represents a grid control designed to simplify the handling of strings and associated objects.">
<polygon fill="white" stroke="black" stroke-width="0" points="774,-539.2 723.3,-539.2 723.3,-520 774,-520 774,-539.2"/>
<text text-anchor="middle" x="748.65" y="-526.1" font-family="Vera Sans, DejaVu Sans, Liberation Sans, Arial, Helvetica, sans" font-size="10.00">StringGrid</text>
</a>
</g>
</g>
<!-- DrawGrid&#45;&gt;StringGrid -->
<g id="edge42" class="edge">
<title>DrawGrid&#45;&gt;StringGrid</title>
<path fill="none" stroke="black" d="M709.11,-529.6C709.11,-529.6 716.8,-529.6 716.8,-529.6"/>
<polygon fill="black" stroke="black" points="716.8,-531.35 721.8,-529.6 716.8,-527.85 716.8,-531.35"/>
</g>
<!-- Object -->
<g id="node33" class="node">
<title>Object</title>
<g id="a_node33"><a xlink:title="TObject is the ultimate ancestor of all objects and components.">
<polygon fill="white" stroke="black" stroke-width="0" points="35.7,-240.2 0,-240.2 0,-221 35.7,-221 35.7,-240.2"/>
<text text-anchor="middle" x="17.85" y="-227.1" font-family="Vera Sans, DejaVu Sans, Liberation Sans, Arial, Helvetica, sans" font-size="10.00">Object</text>
</a>
</g>
</g>
<!-- Object&#45;&gt;Persistent -->
<g id="edge34" class="edge">
<title>Object&#45;&gt;Persistent</title>
<path fill="none" stroke="black" d="M35.44,-230.6C35.44,-230.6 43.59,-230.6 43.59,-230.6"/>
<polygon fill="black" stroke="black" points="43.59,-232.35 48.59,-230.6 43.59,-228.85 43.59,-232.35"/>
</g>
</g>
</svg>
