<?xml version="1.0" encoding="UTF-8" standalone="no"?>
<!DOCTYPE svg PUBLIC "-//W3C//DTD SVG 1.1//EN"
 "http://www.w3.org/Graphics/SVG/1.1/DTD/svg11.dtd">
<!-- Generated by graphviz version 12.2.0 (20241103.1931)
 -->
<!-- Title: inheritance65f7b12991 Pages: 1 -->
<svg width="236pt" height="183pt"
 viewBox="0.00 0.00 236.30 183.20" xmlns="http://www.w3.org/2000/svg" xmlns:xlink="http://www.w3.org/1999/xlink">
<g id="graph0" class="graph" transform="scale(1 1) rotate(0) translate(4 179.2)">
<title>inheritance65f7b12991</title>
<!-- Bitmap -->
<g id="node1" class="node">
<title>Bitmap</title>
<g id="a_node1"><a xlink:title="TBitmap is an encapsulation of a Windows bitmap (HBITMAP), including its palette (HPALETTE).">
<polygon fill="white" stroke="black" stroke-width="0" points="226.42,-175.2 188.47,-175.2 188.47,-156 226.42,-156 226.42,-175.2"/>
<text text-anchor="middle" x="207.45" y="-162.1" font-family="Vera Sans, DejaVu Sans, Liberation Sans, Arial, Helvetica, sans" font-size="10.00">Bitmap</text>
</a>
</g>
</g>
<!-- Graphic -->
<g id="node2" class="node">
<title>Graphic</title>
<g id="a_node2"><a xlink:title="TGraphic is the abstract base class type for objects such as icons, bitmaps, and metafiles that can store and display visual images.">
<polygon fill="white" stroke="black" stroke-width="0" points="164.35,-149.2 123.4,-149.2 123.4,-130 164.35,-130 164.35,-149.2"/>
<text text-anchor="middle" x="143.87" y="-136.1" font-family="Vera Sans, DejaVu Sans, Liberation Sans, Arial, Helvetica, sans" font-size="10.00">Graphic</text>
</a>
</g>
</g>
<!-- Graphic&#45;&gt;Bitmap -->
<g id="edge1" class="edge">
<title>Graphic&#45;&gt;Bitmap</title>
<path fill="none" stroke="black" d="M143.87,-148.99C143.87,-156.43 143.87,-165.6 143.87,-165.6 143.87,-165.6 182.21,-165.6 182.21,-165.6"/>
<polygon fill="black" stroke="black" points="182.21,-167.35 187.21,-165.6 182.21,-163.85 182.21,-167.35"/>
</g>
<!-- Icon -->
<g id="node7" class="node">
<title>Icon</title>
<g id="a_node7"><a xlink:title="TIcon is an encapsulation of a Windows icon.">
<polygon fill="white" stroke="black" stroke-width="0" points="220.42,-149.2 194.47,-149.2 194.47,-130 220.42,-130 220.42,-149.2"/>
<text text-anchor="middle" x="207.45" y="-136.1" font-family="Vera Sans, DejaVu Sans, Liberation Sans, Arial, Helvetica, sans" font-size="10.00">Icon</text>
</a>
</g>
</g>
<!-- Graphic&#45;&gt;Icon -->
<g id="edge6" class="edge">
<title>Graphic&#45;&gt;Icon</title>
<path fill="none" stroke="black" d="M164.34,-142.8C164.34,-142.8 188.29,-142.8 188.29,-142.8"/>
<polygon fill="black" stroke="black" points="188.29,-144.55 193.29,-142.8 188.29,-141.05 188.29,-144.55"/>
</g>
<!-- Metafile -->
<g id="node8" class="node">
<title>Metafile</title>
<g id="a_node8"><a xlink:title="TMetafile is an encapsulation of the Win32 Enhanced metafile.">
<polygon fill="white" stroke="black" stroke-width="0" points="228.3,-123.2 186.6,-123.2 186.6,-104 228.3,-104 228.3,-123.2"/>
<text text-anchor="middle" x="207.45" y="-110.1" font-family="Vera Sans, DejaVu Sans, Liberation Sans, Arial, Helvetica, sans" font-size="10.00">Metafile</text>
</a>
</g>
</g>
<!-- Graphic&#45;&gt;Metafile -->
<g id="edge7" class="edge">
<title>Graphic&#45;&gt;Metafile</title>
<path fill="none" stroke="black" d="M164.24,-136.4C172.26,-136.4 179.6,-136.4 179.6,-136.4 179.6,-136.4 179.6,-113.6 179.6,-113.6 179.6,-113.6 180.3,-113.6 180.3,-113.6"/>
<polygon fill="black" stroke="black" points="180.11,-115.35 185.11,-113.6 180.11,-111.85 180.11,-115.35"/>
</g>
<!-- Canvas -->
<g id="node3" class="node">
<title>Canvas</title>
<g id="a_node3"><a xlink:title="TCanvas provides an abstract drawing space for objects that must render their own images.">
<polygon fill="white" stroke="black" stroke-width="0" points="164.35,-123.2 123.4,-123.2 123.4,-104 164.35,-104 164.35,-123.2"/>
<text text-anchor="middle" x="143.87" y="-110.1" font-family="Vera Sans, DejaVu Sans, Liberation Sans, Arial, Helvetica, sans" font-size="10.00">Canvas</text>
</a>
</g>
</g>
<!-- Persistent -->
<g id="node4" class="node">
<title>Persistent</title>
<g id="a_node4"><a xlink:title="TPersistent is the ancestor for all objects that have assignment and streaming capabilities.">
<polygon fill="white" stroke="black" stroke-width="0" points="101.15,-84.2 49.7,-84.2 49.7,-65 101.15,-65 101.15,-84.2"/>
<text text-anchor="middle" x="75.42" y="-71.1" font-family="Vera Sans, DejaVu Sans, Liberation Sans, Arial, Helvetica, sans" font-size="10.00">Persistent</text>
</a>
</g>
</g>
<!-- Persistent&#45;&gt;Graphic -->
<g id="edge5" class="edge">
<title>Persistent&#45;&gt;Graphic</title>
<path fill="none" stroke="black" d="M62.56,-84.19C62.56,-102.27 62.56,-139.6 62.56,-139.6 62.56,-139.6 117.26,-139.6 117.26,-139.6"/>
<polygon fill="black" stroke="black" points="117.26,-141.35 122.26,-139.6 117.26,-137.85 117.26,-141.35"/>
</g>
<!-- Persistent&#45;&gt;Canvas -->
<g id="edge2" class="edge">
<title>Persistent&#45;&gt;Canvas</title>
<path fill="none" stroke="black" d="M75.42,-84.04C75.42,-95.58 75.42,-113.6 75.42,-113.6 75.42,-113.6 117.19,-113.6 117.19,-113.6"/>
<polygon fill="black" stroke="black" points="117.19,-115.35 122.19,-113.6 117.19,-111.85 117.19,-115.35"/>
</g>
<!-- Collection -->
<g id="node5" class="node">
<title>Collection</title>
<g id="a_node5"><a xlink:title="TCollection is a container for TCollectionItem objects.">
<polygon fill="white" stroke="black" stroke-width="0" points="169.22,-97.2 118.52,-97.2 118.52,-78 169.22,-78 169.22,-97.2"/>
<text text-anchor="middle" x="143.87" y="-84.1" font-family="Vera Sans, DejaVu Sans, Liberation Sans, Arial, Helvetica, sans" font-size="10.00">Collection</text>
</a>
</g>
</g>
<!-- Persistent&#45;&gt;Collection -->
<g id="edge3" class="edge">
<title>Persistent&#45;&gt;Collection</title>
<path fill="none" stroke="black" d="M88.29,-84.15C88.29,-87.62 88.29,-90.7 88.29,-90.7 88.29,-90.7 112.17,-90.7 112.17,-90.7"/>
<polygon fill="black" stroke="black" points="112.17,-92.45 117.17,-90.7 112.17,-88.95 112.17,-92.45"/>
</g>
<!-- Component -->
<g id="node6" class="node">
<title>Component</title>
<g id="a_node6"><a xlink:title="TComponent is the common ancestor of all component classes.">
<polygon fill="white" stroke="black" stroke-width="0" points="172.6,-71.2 115.15,-71.2 115.15,-52 172.6,-52 172.6,-71.2"/>
<text text-anchor="middle" x="143.87" y="-58.1" font-family="Vera Sans, DejaVu Sans, Liberation Sans, Arial, Helvetica, sans" font-size="10.00">Component</text>
</a>
</g>
</g>
<!-- Persistent&#45;&gt;Component -->
<g id="edge4" class="edge">
<title>Persistent&#45;&gt;Component</title>
<path fill="none" stroke="black" d="M88.29,-65.05C88.29,-61.58 88.29,-58.5 88.29,-58.5 88.29,-58.5 108.92,-58.5 108.92,-58.5"/>
<polygon fill="black" stroke="black" points="108.92,-60.25 113.92,-58.5 108.92,-56.75 108.92,-60.25"/>
</g>
<!-- Picture -->
<g id="node10" class="node">
<title>Picture</title>
<g id="a_node10"><a xlink:title="TPicture contains a bitmap, icon, metafile graphic, or user&#45;defined graphic.">
<polygon fill="white" stroke="black" stroke-width="0" points="162.85,-45.2 124.9,-45.2 124.9,-26 162.85,-26 162.85,-45.2"/>
<text text-anchor="middle" x="143.87" y="-32.1" font-family="Vera Sans, DejaVu Sans, Liberation Sans, Arial, Helvetica, sans" font-size="10.00">Picture</text>
</a>
</g>
</g>
<!-- Persistent&#45;&gt;Picture -->
<g id="edge9" class="edge">
<title>Persistent&#45;&gt;Picture</title>
<path fill="none" stroke="black" d="M75.42,-65.16C75.42,-53.62 75.42,-35.6 75.42,-35.6 75.42,-35.6 118.66,-35.6 118.66,-35.6"/>
<polygon fill="black" stroke="black" points="118.66,-37.35 123.66,-35.6 118.66,-33.85 118.66,-37.35"/>
</g>
<!-- Strings -->
<g id="node11" class="node">
<title>Strings</title>
<g id="a_node11"><a xlink:title="TStrings is the base class for objects that represent a list of strings.">
<polygon fill="white" stroke="black" stroke-width="0" points="162.85,-19.2 124.9,-19.2 124.9,0 162.85,0 162.85,-19.2"/>
<text text-anchor="middle" x="143.87" y="-6.1" font-family="Vera Sans, DejaVu Sans, Liberation Sans, Arial, Helvetica, sans" font-size="10.00">Strings</text>
</a>
</g>
</g>
<!-- Persistent&#45;&gt;Strings -->
<g id="edge10" class="edge">
<title>Persistent&#45;&gt;Strings</title>
<path fill="none" stroke="black" d="M62.56,-65.01C62.56,-46.93 62.56,-9.6 62.56,-9.6 62.56,-9.6 118.5,-9.6 118.5,-9.6"/>
<polygon fill="black" stroke="black" points="118.5,-11.35 123.5,-9.6 118.5,-7.85 118.5,-11.35"/>
</g>
<!-- Object -->
<g id="node9" class="node">
<title>Object</title>
<g id="a_node9"><a xlink:title="TObject is the ultimate ancestor of all objects and components.">
<polygon fill="white" stroke="black" stroke-width="0" points="35.7,-84.2 0,-84.2 0,-65 35.7,-65 35.7,-84.2"/>
<text text-anchor="middle" x="17.85" y="-71.1" font-family="Vera Sans, DejaVu Sans, Liberation Sans, Arial, Helvetica, sans" font-size="10.00">Object</text>
</a>
</g>
</g>
<!-- Object&#45;&gt;Persistent -->
<g id="edge8" class="edge">
<title>Object&#45;&gt;Persistent</title>
<path fill="none" stroke="black" d="M35.44,-74.6C35.44,-74.6 43.59,-74.6 43.59,-74.6"/>
<polygon fill="black" stroke="black" points="43.59,-76.35 48.59,-74.6 43.59,-72.85 43.59,-76.35"/>
</g>
</g>
</svg>
