<?xml version="1.0" encoding="UTF-8" standalone="no"?>
<!DOCTYPE svg PUBLIC "-//W3C//DTD SVG 1.1//EN"
 "http://www.w3.org/Graphics/SVG/1.1/DTD/svg11.dtd">
<!-- Generated by graphviz version 12.2.0 (20241103.1931)
 -->
<!-- Title: inheritanceb9e814220f Pages: 1 -->
<svg width="1120pt" height="79pt"
 viewBox="0.00 0.00 1120.25 79.20" xmlns="http://www.w3.org/2000/svg" xmlns:xlink="http://www.w3.org/1999/xlink">
<g id="graph0" class="graph" transform="scale(1 1) rotate(0) translate(4 75.2)">
<title>inheritanceb9e814220f</title>
<!-- BasicBindComponent -->
<g id="node1" class="node">
<title>BasicBindComponent</title>
<g id="a_node1"><a xlink:title="Wrapper for Pascal class TBasicBindComponent">
<polygon fill="white" stroke="black" stroke-width="0" points="288.3,-58.2 186.6,-58.2 186.6,-39 288.3,-39 288.3,-58.2"/>
<text text-anchor="middle" x="237.45" y="-45.1" font-family="Vera Sans, DejaVu Sans, Liberation Sans, Arial, Helvetica, sans" font-size="10.00">BasicBindComponent</text>
</a>
</g>
</g>
<!-- ContainedBindComponent -->
<g id="node4" class="node">
<title>ContainedBindComponent</title>
<g id="a_node4"><a xlink:title="Base class for all common binding components descending from it.">
<polygon fill="white" stroke="black" stroke-width="0" points="423.5,-58.2 302.3,-58.2 302.3,-39 423.5,-39 423.5,-58.2"/>
<text text-anchor="middle" x="362.9" y="-45.1" font-family="Vera Sans, DejaVu Sans, Liberation Sans, Arial, Helvetica, sans" font-size="10.00">ContainedBindComponent</text>
</a>
</g>
</g>
<!-- BasicBindComponent&#45;&gt;ContainedBindComponent -->
<g id="edge4" class="edge">
<title>BasicBindComponent&#45;&gt;ContainedBindComponent</title>
<path fill="none" stroke="black" d="M288.11,-48.6C288.11,-48.6 296.05,-48.6 296.05,-48.6"/>
<polygon fill="black" stroke="black" points="296.05,-50.35 301.05,-48.6 296.05,-46.85 296.05,-50.35"/>
</g>
<!-- Component -->
<g id="node2" class="node">
<title>Component</title>
<g id="a_node2"><a xlink:title="TComponent is the common ancestor of all component classes.">
<polygon fill="white" stroke="black" stroke-width="0" points="172.6,-58.2 115.15,-58.2 115.15,-39 172.6,-39 172.6,-58.2"/>
<text text-anchor="middle" x="143.88" y="-45.1" font-family="Vera Sans, DejaVu Sans, Liberation Sans, Arial, Helvetica, sans" font-size="10.00">Component</text>
</a>
</g>
</g>
<!-- Component&#45;&gt;BasicBindComponent -->
<g id="edge1" class="edge">
<title>Component&#45;&gt;BasicBindComponent</title>
<path fill="none" stroke="black" d="M172.46,-48.6C172.46,-48.6 180.43,-48.6 180.43,-48.6"/>
<polygon fill="black" stroke="black" points="180.43,-50.35 185.43,-48.6 180.43,-46.85 180.43,-50.35"/>
</g>
<!-- BindComponentDelegate -->
<g id="node3" class="node">
<title>BindComponentDelegate</title>
<g id="a_node3"><a xlink:title="Is a binding component that wraps one or more other binding components.">
<polygon fill="white" stroke="black" stroke-width="0" points="553.45,-58.2 437.5,-58.2 437.5,-39 553.45,-39 553.45,-58.2"/>
<text text-anchor="middle" x="495.48" y="-45.1" font-family="Vera Sans, DejaVu Sans, Liberation Sans, Arial, Helvetica, sans" font-size="10.00">BindComponentDelegate</text>
</a>
</g>
</g>
<!-- LinkPropertyToFieldDelegate -->
<g id="node10" class="node">
<title>LinkPropertyToFieldDelegate</title>
<g id="a_node10"><a xlink:title="Is a binding component that wraps another binding component and references a component property, data source, and field name.">
<polygon fill="white" stroke="black" stroke-width="0" points="699.9,-71.2 567.45,-71.2 567.45,-52 699.9,-52 699.9,-71.2"/>
<text text-anchor="middle" x="633.67" y="-58.1" font-family="Vera Sans, DejaVu Sans, Liberation Sans, Arial, Helvetica, sans" font-size="10.00">LinkPropertyToFieldDelegate</text>
</a>
</g>
</g>
<!-- BindComponentDelegate&#45;&gt;LinkPropertyToFieldDelegate -->
<g id="edge13" class="edge">
<title>BindComponentDelegate&#45;&gt;LinkPropertyToFieldDelegate</title>
<path fill="none" stroke="black" d="M495.48,-58.15C495.48,-61.62 495.48,-64.7 495.48,-64.7 495.48,-64.7 561.3,-64.7 561.3,-64.7"/>
<polygon fill="black" stroke="black" points="561.3,-66.45 566.3,-64.7 561.3,-62.95 561.3,-66.45"/>
</g>
<!-- LinkControlDelegate -->
<g id="node11" class="node">
<title>LinkControlDelegate</title>
<g id="a_node11"><a xlink:title="Is a binding component that wraps another binding component and references a control.">
<polygon fill="white" stroke="black" stroke-width="0" points="681.52,-45.2 585.82,-45.2 585.82,-26 681.52,-26 681.52,-45.2"/>
<text text-anchor="middle" x="633.67" y="-32.1" font-family="Vera Sans, DejaVu Sans, Liberation Sans, Arial, Helvetica, sans" font-size="10.00">LinkControlDelegate</text>
</a>
</g>
</g>
<!-- BindComponentDelegate&#45;&gt;LinkControlDelegate -->
<g id="edge8" class="edge">
<title>BindComponentDelegate&#45;&gt;LinkControlDelegate</title>
<path fill="none" stroke="black" d="M495.48,-39.05C495.48,-35.58 495.48,-32.5 495.48,-32.5 495.48,-32.5 579.6,-32.5 579.6,-32.5"/>
<polygon fill="black" stroke="black" points="579.6,-34.25 584.6,-32.5 579.6,-30.75 579.6,-34.25"/>
</g>
<!-- ContainedBindComponent&#45;&gt;BindComponentDelegate -->
<g id="edge2" class="edge">
<title>ContainedBindComponent&#45;&gt;BindComponentDelegate</title>
<path fill="none" stroke="black" d="M423.37,-48.6C423.37,-48.6 431.22,-48.6 431.22,-48.6"/>
<polygon fill="black" stroke="black" points="431.22,-50.35 436.22,-48.6 431.22,-46.85 431.22,-50.35"/>
</g>
<!-- Persistent -->
<g id="node5" class="node">
<title>Persistent</title>
<g id="a_node5"><a xlink:title="TPersistent is the ancestor for all objects that have assignment and streaming capabilities.">
<polygon fill="white" stroke="black" stroke-width="0" points="101.15,-58.2 49.7,-58.2 49.7,-39 101.15,-39 101.15,-58.2"/>
<text text-anchor="middle" x="75.42" y="-45.1" font-family="Vera Sans, DejaVu Sans, Liberation Sans, Arial, Helvetica, sans" font-size="10.00">Persistent</text>
</a>
</g>
</g>
<!-- Persistent&#45;&gt;Component -->
<g id="edge3" class="edge">
<title>Persistent&#45;&gt;Component</title>
<path fill="none" stroke="black" d="M100.91,-48.6C100.91,-48.6 108.86,-48.6 108.86,-48.6"/>
<polygon fill="black" stroke="black" points="108.86,-50.35 113.86,-48.6 108.86,-46.85 108.86,-50.35"/>
</g>
<!-- CustomLinkControlToField -->
<g id="node6" class="node">
<title>CustomLinkControlToField</title>
<g id="a_node6"><a xlink:title="Represents the base class for linking a control to a field.">
<polygon fill="white" stroke="black" stroke-width="0" points="986.43,-45.2 863.73,-45.2 863.73,-26 986.43,-26 986.43,-45.2"/>
<text text-anchor="middle" x="925.08" y="-32.1" font-family="Vera Sans, DejaVu Sans, Liberation Sans, Arial, Helvetica, sans" font-size="10.00">CustomLinkControlToField</text>
</a>
</g>
</g>
<!-- LinkControlToField -->
<g id="node12" class="node">
<title>LinkControlToField</title>
<g id="a_node12"><a xlink:title="Links a list control to a field.">
<polygon fill="white" stroke="black" stroke-width="0" points="1104.38,-45.2 1016.18,-45.2 1016.18,-26 1104.38,-26 1104.38,-45.2"/>
<text text-anchor="middle" x="1060.28" y="-32.1" font-family="Vera Sans, DejaVu Sans, Liberation Sans, Arial, Helvetica, sans" font-size="10.00">LinkControlToField</text>
</a>
</g>
</g>
<!-- CustomLinkControlToField&#45;&gt;LinkControlToField -->
<g id="edge9" class="edge">
<title>CustomLinkControlToField&#45;&gt;LinkControlToField</title>
<path fill="none" stroke="black" d="M986.35,-35.6C986.35,-35.6 1009.68,-35.6 1009.68,-35.6"/>
<polygon fill="black" stroke="black" points="1009.68,-37.35 1014.68,-35.6 1009.68,-33.85 1009.68,-37.35"/>
</g>
<!-- LinkControlToFieldDelegate -->
<g id="node7" class="node">
<title>LinkControlToFieldDelegate</title>
<g id="a_node7"><a xlink:title="Is a binding component that wraps another binding component and references a control, data source, and field.">
<polygon fill="white" stroke="black" stroke-width="0" points="841.48,-45.2 714.27,-45.2 714.27,-26 841.48,-26 841.48,-45.2"/>
<text text-anchor="middle" x="777.88" y="-32.1" font-family="Vera Sans, DejaVu Sans, Liberation Sans, Arial, Helvetica, sans" font-size="10.00">LinkControlToFieldDelegate</text>
</a>
</g>
</g>
<!-- LinkControlToFieldDelegate&#45;&gt;CustomLinkControlToField -->
<g id="edge5" class="edge">
<title>LinkControlToFieldDelegate&#45;&gt;CustomLinkControlToField</title>
<path fill="none" stroke="black" d="M841.16,-38.8C841.16,-38.8 857.67,-38.8 857.67,-38.8"/>
<polygon fill="black" stroke="black" points="857.67,-40.55 862.67,-38.8 857.67,-37.05 857.67,-40.55"/>
</g>
<!-- CustomLinkListControlToField -->
<g id="node8" class="node">
<title>CustomLinkListControlToField</title>
<g id="a_node8"><a xlink:title="Represents the base class for linking a list control to a field.">
<polygon fill="white" stroke="black" stroke-width="0" points="994.3,-19.2 855.85,-19.2 855.85,0 994.3,0 994.3,-19.2"/>
<text text-anchor="middle" x="925.08" y="-6.1" font-family="Vera Sans, DejaVu Sans, Liberation Sans, Arial, Helvetica, sans" font-size="10.00">CustomLinkListControlToField</text>
</a>
</g>
</g>
<!-- LinkControlToFieldDelegate&#45;&gt;CustomLinkListControlToField -->
<g id="edge6" class="edge">
<title>LinkControlToFieldDelegate&#45;&gt;CustomLinkListControlToField</title>
<path fill="none" stroke="black" d="M841.2,-32.4C851.99,-32.4 859.79,-32.4 859.79,-32.4 859.79,-32.4 859.79,-25.65 859.79,-25.65"/>
<polygon fill="black" stroke="black" points="861.54,-25.65 859.79,-20.65 858.04,-25.65 861.54,-25.65"/>
</g>
<!-- LinkListControlToField -->
<g id="node13" class="node">
<title>LinkListControlToField</title>
<g id="a_node13"><a xlink:title="Links a list control to a field.">
<polygon fill="white" stroke="black" stroke-width="0" points="1112.25,-19.2 1008.3,-19.2 1008.3,0 1112.25,0 1112.25,-19.2"/>
<text text-anchor="middle" x="1060.28" y="-6.1" font-family="Vera Sans, DejaVu Sans, Liberation Sans, Arial, Helvetica, sans" font-size="10.00">LinkListControlToField</text>
</a>
</g>
</g>
<!-- CustomLinkListControlToField&#45;&gt;LinkListControlToField -->
<g id="edge11" class="edge">
<title>CustomLinkListControlToField&#45;&gt;LinkListControlToField</title>
<path fill="none" stroke="black" d="M994.26,-9.6C994.26,-9.6 1002.04,-9.6 1002.04,-9.6"/>
<polygon fill="black" stroke="black" points="1002.04,-11.35 1007.04,-9.6 1002.04,-7.85 1002.04,-11.35"/>
</g>
<!-- CustomLinkPropertyToField -->
<g id="node9" class="node">
<title>CustomLinkPropertyToField</title>
<g id="a_node9"><a xlink:title="Represents the base class for linking a property of a component to a field.">
<polygon fill="white" stroke="black" stroke-width="0" points="841.85,-71.2 713.9,-71.2 713.9,-52 841.85,-52 841.85,-71.2"/>
<text text-anchor="middle" x="777.88" y="-58.1" font-family="Vera Sans, DejaVu Sans, Liberation Sans, Arial, Helvetica, sans" font-size="10.00">CustomLinkPropertyToField</text>
</a>
</g>
</g>
<!-- LinkPropertyToField -->
<g id="node14" class="node">
<title>LinkPropertyToField</title>
<g id="a_node14"><a xlink:title="Links the property of a component to a field.">
<polygon fill="white" stroke="black" stroke-width="0" points="971.8,-71.2 878.35,-71.2 878.35,-52 971.8,-52 971.8,-71.2"/>
<text text-anchor="middle" x="925.08" y="-58.1" font-family="Vera Sans, DejaVu Sans, Liberation Sans, Arial, Helvetica, sans" font-size="10.00">LinkPropertyToField</text>
</a>
</g>
</g>
<!-- CustomLinkPropertyToField&#45;&gt;LinkPropertyToField -->
<g id="edge12" class="edge">
<title>CustomLinkPropertyToField&#45;&gt;LinkPropertyToField</title>
<path fill="none" stroke="black" d="M841.58,-61.6C841.58,-61.6 872.06,-61.6 872.06,-61.6"/>
<polygon fill="black" stroke="black" points="872.06,-63.35 877.06,-61.6 872.06,-59.85 872.06,-63.35"/>
</g>
<!-- LinkPropertyToFieldDelegate&#45;&gt;CustomLinkPropertyToField -->
<g id="edge7" class="edge">
<title>LinkPropertyToFieldDelegate&#45;&gt;CustomLinkPropertyToField</title>
<path fill="none" stroke="black" d="M699.87,-61.6C699.87,-61.6 707.59,-61.6 707.59,-61.6"/>
<polygon fill="black" stroke="black" points="707.59,-63.35 712.59,-61.6 707.59,-59.85 707.59,-63.35"/>
</g>
<!-- LinkControlDelegate&#45;&gt;LinkControlToFieldDelegate -->
<g id="edge10" class="edge">
<title>LinkControlDelegate&#45;&gt;LinkControlToFieldDelegate</title>
<path fill="none" stroke="black" d="M681.29,-35.6C681.29,-35.6 707.85,-35.6 707.85,-35.6"/>
<polygon fill="black" stroke="black" points="707.85,-37.35 712.85,-35.6 707.85,-33.85 707.85,-37.35"/>
</g>
<!-- Object -->
<g id="node15" class="node">
<title>Object</title>
<g id="a_node15"><a xlink:title="TObject is the ultimate ancestor of all objects and components.">
<polygon fill="white" stroke="black" stroke-width="0" points="35.7,-58.2 0,-58.2 0,-39 35.7,-39 35.7,-58.2"/>
<text text-anchor="middle" x="17.85" y="-45.1" font-family="Vera Sans, DejaVu Sans, Liberation Sans, Arial, Helvetica, sans" font-size="10.00">Object</text>
</a>
</g>
</g>
<!-- Object&#45;&gt;Persistent -->
<g id="edge14" class="edge">
<title>Object&#45;&gt;Persistent</title>
<path fill="none" stroke="black" d="M35.44,-48.6C35.44,-48.6 43.59,-48.6 43.59,-48.6"/>
<polygon fill="black" stroke="black" points="43.59,-50.35 48.59,-48.6 43.59,-46.85 43.59,-50.35"/>
</g>
</g>
</svg>
